0, 0, Header, 1, 2, 480
1, 0, Start_track
1, 0, Time_signature, 4, 2, 24, 8
"1, 0, Key_signature, -1, ""major"""
1, 0, Tempo, 477000
1, 0, Control_c, 0, 121, 0
1, 0, Program_c, 0, 0
1, 0, Control_c, 0, 7, 100
1, 0, Control_c, 0, 10, 64
1, 0, Control_c, 0, 91, 0
1, 0, Control_c, 0, 93, 0
1, 0, MIDI_port, 0
1, 0, Note_on_c, 0, 62, 96
1, 113, Note_on_c, 0, 62, 0
1, 120, Note_on_c, 0, 62, 96
1, 233, Note_on_c, 0, 62, 0
1, 240, Note_on_c, 0, 74, 96
1, 359, Note_on_c, 0, 74, 0
1, 480, Note_on_c, 0, 69, 96
1, 599, Note_on_c, 0, 69, 0
1, 840, Note_on_c, 0, 68, 96
1, 953, Note_on_c, 0, 68, 0
1, 1080, Note_on_c, 0, 67, 96
1, 1193, Note_on_c, 0, 67, 0
1, 1320, Note_on_c, 0, 65, 96
1, 1547, Note_on_c, 0, 65, 0
1, 1560, Note_on_c, 0, 62, 96
1, 1673, Note_on_c, 0, 62, 0
1, 1680, Note_on_c, 0, 65, 96
1, 1793, Note_on_c, 0, 65, 0
1, 1800, Note_on_c, 0, 67, 96
1, 1913, Note_on_c, 0, 67, 0
1, 1920, Note_on_c, 0, 60, 96
1, 2033, Note_on_c, 0, 60, 0
1, 2040, Note_on_c, 0, 60, 96
1, 2153, Note_on_c, 0, 60, 0
1, 2160, Note_on_c, 0, 74, 96
1, 2279, Note_on_c, 0, 74, 0
1, 2400, Note_on_c, 0, 69, 96
1, 2519, Note_on_c, 0, 69, 0
1, 2760, Note_on_c, 0, 68, 96
1, 2873, Note_on_c, 0, 68, 0
1, 3000, Note_on_c, 0, 67, 96
1, 3113, Note_on_c, 0, 67, 0
1, 3240, Note_on_c, 0, 65, 96
1, 3467, Note_on_c, 0, 65, 0
1, 3480, Note_on_c, 0, 62, 96
1, 3593, Note_on_c, 0, 62, 0
1, 3600, Note_on_c, 0, 65, 96
1, 3713, Note_on_c, 0, 65, 0
1, 3720, Note_on_c, 0, 67, 96
1, 3833, Note_on_c, 0, 67, 0
1, 3840, Note_on_c, 0, 59, 96
1, 3953, Note_on_c, 0, 59, 0
1, 3960, Note_on_c, 0, 59, 96
1, 4073, Note_on_c, 0, 59, 0
1, 4080, Note_on_c, 0, 74, 96
1, 4199, Note_on_c, 0, 74, 0
1, 4320, Note_on_c, 0, 69, 96
1, 4439, Note_on_c, 0, 69, 0
1, 4680, Note_on_c, 0, 68, 96
1, 4793, Note_on_c, 0, 68, 0
1, 4920, Note_on_c, 0, 67, 96
1, 5033, Note_on_c, 0, 67, 0
1, 5160, Note_on_c, 0, 65, 96
1, 5387, Note_on_c, 0, 65, 0
1, 5400, Note_on_c, 0, 62, 96
1, 5513, Note_on_c, 0, 62, 0
1, 5520, Note_on_c, 0, 65, 96
1, 5633, Note_on_c, 0, 65, 0
1, 5640, Note_on_c, 0, 67, 96
1, 5753, Note_on_c, 0, 67, 0
1, 5760, Note_on_c, 0, 58, 96
1, 5873, Note_on_c, 0, 58, 0
1, 5880, Note_on_c, 0, 58, 96
1, 5993, Note_on_c, 0, 58, 0
1, 6000, Note_on_c, 0, 74, 96
1, 6119, Note_on_c, 0, 74, 0
1, 6240, Note_on_c, 0, 69, 96
1, 6359, Note_on_c, 0, 69, 0
1, 6600, Note_on_c, 0, 68, 96
1, 6713, Note_on_c, 0, 68, 0
1, 6840, Note_on_c, 0, 67, 96
1, 6953, Note_on_c, 0, 67, 0
1, 7080, Note_on_c, 0, 65, 96
1, 7307, Note_on_c, 0, 65, 0
1, 7320, Note_on_c, 0, 62, 96
1, 7433, Note_on_c, 0, 62, 0
1, 7440, Note_on_c, 0, 65, 96
1, 7553, Note_on_c, 0, 65, 0
1, 7560, Note_on_c, 0, 67, 96
1, 7673, Note_on_c, 0, 67, 0
1, 7680, Note_on_c, 0, 62, 96
1, 7793, Note_on_c, 0, 62, 0
1, 7800, Note_on_c, 0, 62, 96
1, 7800, Note_on_c, 0, 62, 0
1, 7800, Note_on_c, 0, 62, 96
1, 7920, Note_on_c, 0, 74, 96
1, 8039, Note_on_c, 0, 74, 0
1, 8160, Note_on_c, 0, 69, 96
1, 8279, Note_on_c, 0, 69, 0
1, 8520, Note_on_c, 0, 68, 96
1, 8633, Note_on_c, 0, 68, 0
1, 8760, Note_on_c, 0, 67, 96
1, 8873, Note_on_c, 0, 67, 0
1, 9000, Note_on_c, 0, 65, 96
1, 9167, Note_on_c, 0, 62, 0
1, 9227, Note_on_c, 0, 65, 0
1, 9240, Note_on_c, 0, 62, 96
1, 9353, Note_on_c, 0, 62, 0
1, 9360, Note_on_c, 0, 65, 96
1, 9473, Note_on_c, 0, 65, 0
1, 9480, Note_on_c, 0, 67, 96
1, 9593, Note_on_c, 0, 67, 0
1, 9600, Note_on_c, 0, 60, 96
1, 9713, Note_on_c, 0, 60, 0
1, 9720, Note_on_c, 0, 60, 96
1, 9833, Note_on_c, 0, 60, 0
1, 9840, Note_on_c, 0, 74, 96
1, 9959, Note_on_c, 0, 74, 0
1, 10080, Note_on_c, 0, 69, 96
1, 10199, Note_on_c, 0, 69, 0
1, 10440, Note_on_c, 0, 68, 96
1, 10553, Note_on_c, 0, 68, 0
1, 10680, Note_on_c, 0, 67, 96
1, 10793, Note_on_c, 0, 67, 0
1, 10920, Note_on_c, 0, 65, 96
1, 11147, Note_on_c, 0, 65, 0
1, 11160, Note_on_c, 0, 62, 96
1, 11273, Note_on_c, 0, 62, 0
1, 11280, Note_on_c, 0, 65, 96
1, 11393, Note_on_c, 0, 65, 0
1, 11400, Note_on_c, 0, 67, 96
1, 11513, Note_on_c, 0, 67, 0
1, 11520, Note_on_c, 0, 59, 96
1, 11633, Note_on_c, 0, 59, 0
1, 11640, Note_on_c, 0, 59, 96
1, 11753, Note_on_c, 0, 59, 0
1, 11760, Note_on_c, 0, 74, 96
1, 11879, Note_on_c, 0, 74, 0
1, 12000, Note_on_c, 0, 69, 96
1, 12119, Note_on_c, 0, 69, 0
1, 12360, Note_on_c, 0, 68, 96
1, 12473, Note_on_c, 0, 68, 0
1, 12600, Note_on_c, 0, 67, 96
1, 12713, Note_on_c, 0, 67, 0
1, 12840, Note_on_c, 0, 65, 96
1, 13067, Note_on_c, 0, 65, 0
1, 13080, Note_on_c, 0, 62, 96
1, 13193, Note_on_c, 0, 62, 0
1, 13200, Note_on_c, 0, 65, 96
1, 13313, Note_on_c, 0, 65, 0
1, 13320, Note_on_c, 0, 67, 96
1, 13433, Note_on_c, 0, 67, 0
1, 13440, Note_on_c, 0, 58, 96
1, 13553, Note_on_c, 0, 58, 0
1, 13560, Note_on_c, 0, 58, 96
1, 13673, Note_on_c, 0, 58, 0
1, 13680, Note_on_c, 0, 74, 96
1, 13799, Note_on_c, 0, 74, 0
1, 13920, Note_on_c, 0, 69, 96
1, 14039, Note_on_c, 0, 69, 0
1, 14280, Note_on_c, 0, 68, 96
1, 14393, Note_on_c, 0, 68, 0
1, 14520, Note_on_c, 0, 67, 96
1, 14633, Note_on_c, 0, 67, 0
1, 14760, Note_on_c, 0, 65, 96
1, 14987, Note_on_c, 0, 65, 0
1, 15000, Note_on_c, 0, 62, 96
1, 15113, Note_on_c, 0, 62, 0
1, 15120, Note_on_c, 0, 65, 96
1, 15233, Note_on_c, 0, 65, 0
1, 15240, Note_on_c, 0, 67, 96
1, 15353, Note_on_c, 0, 67, 0
1, 15360, Note_on_c, 0, 62, 112
1, 15360, Note_on_c, 0, 74, 112
1, 15473, Note_on_c, 0, 62, 0
1, 15473, Note_on_c, 0, 74, 0
1, 15480, Note_on_c, 0, 62, 112
1, 15480, Note_on_c, 0, 74, 112
1, 15593, Note_on_c, 0, 62, 0
1, 15593, Note_on_c, 0, 74, 0
1, 15600, Note_on_c, 0, 74, 112
1, 15600, Note_on_c, 0, 86, 112
1, 15719, Note_on_c, 0, 74, 0
1, 15719, Note_on_c, 0, 86, 0
1, 15840, Note_on_c, 0, 69, 112
1, 15840, Note_on_c, 0, 81, 112
1, 15959, Note_on_c, 0, 69, 0
1, 15959, Note_on_c, 0, 81, 0
1, 16200, Note_on_c, 0, 68, 112
1, 16200, Note_on_c, 0, 80, 112
1, 16313, Note_on_c, 0, 68, 0
1, 16313, Note_on_c, 0, 80, 0
1, 16440, Note_on_c, 0, 67, 112
1, 16440, Note_on_c, 0, 79, 112
1, 16553, Note_on_c, 0, 67, 0
1, 16553, Note_on_c, 0, 79, 0
1, 16680, Note_on_c, 0, 65, 112
1, 16680, Note_on_c, 0, 77, 112
1, 16907, Note_on_c, 0, 65, 0
1, 16907, Note_on_c, 0, 77, 0
1, 16920, Note_on_c, 0, 62, 112
1, 16920, Note_on_c, 0, 74, 112
1, 17033, Note_on_c, 0, 62, 0
1, 17033, Note_on_c, 0, 74, 0
1, 17040, Note_on_c, 0, 65, 112
1, 17040, Note_on_c, 0, 77, 112
1, 17153, Note_on_c, 0, 65, 0
1, 17153, Note_on_c, 0, 77, 0
1, 17160, Note_on_c, 0, 67, 112
1, 17160, Note_on_c, 0, 79, 112
1, 17273, Note_on_c, 0, 67, 0
1, 17273, Note_on_c, 0, 79, 0
1, 17280, Note_on_c, 0, 60, 112
1, 17280, Note_on_c, 0, 72, 112
1, 17393, Note_on_c, 0, 60, 0
1, 17393, Note_on_c, 0, 72, 0
1, 17400, Note_on_c, 0, 60, 112
1, 17400, Note_on_c, 0, 72, 112
1, 17513, Note_on_c, 0, 60, 0
1, 17513, Note_on_c, 0, 72, 0
1, 17520, Note_on_c, 0, 74, 112
1, 17520, Note_on_c, 0, 86, 112
1, 17639, Note_on_c, 0, 74, 0
1, 17639, Note_on_c, 0, 86, 0
1, 17760, Note_on_c, 0, 69, 112
1, 17760, Note_on_c, 0, 81, 112
1, 17879, Note_on_c, 0, 69, 0
1, 17879, Note_on_c, 0, 81, 0
1, 18120, Note_on_c, 0, 68, 112
1, 18120, Note_on_c, 0, 80, 112
1, 18233, Note_on_c, 0, 68, 0
1, 18233, Note_on_c, 0, 80, 0
1, 18360, Note_on_c, 0, 67, 112
1, 18360, Note_on_c, 0, 79, 112
1, 18473, Note_on_c, 0, 67, 0
1, 18473, Note_on_c, 0, 79, 0
1, 18600, Note_on_c, 0, 65, 112
1, 18600, Note_on_c, 0, 77, 112
1, 18827, Note_on_c, 0, 65, 0
1, 18827, Note_on_c, 0, 77, 0
1, 18840, Note_on_c, 0, 62, 112
1, 18840, Note_on_c, 0, 74, 112
1, 18953, Note_on_c, 0, 62, 0
1, 18953, Note_on_c, 0, 74, 0
1, 18960, Note_on_c, 0, 65, 112
1, 18960, Note_on_c, 0, 77, 112
1, 19073, Note_on_c, 0, 65, 0
1, 19073, Note_on_c, 0, 77, 0
1, 19080, Note_on_c, 0, 67, 112
1, 19080, Note_on_c, 0, 79, 112
1, 19193, Note_on_c, 0, 67, 0
1, 19193, Note_on_c, 0, 79, 0
1, 19200, Note_on_c, 0, 59, 112
1, 19200, Note_on_c, 0, 71, 112
1, 19313, Note_on_c, 0, 59, 0
1, 19313, Note_on_c, 0, 71, 0
1, 19320, Note_on_c, 0, 59, 112
1, 19320, Note_on_c, 0, 71, 112
1, 19433, Note_on_c, 0, 59, 0
1, 19433, Note_on_c, 0, 71, 0
1, 19440, Note_on_c, 0, 74, 112
1, 19440, Note_on_c, 0, 86, 112
1, 19559, Note_on_c, 0, 74, 0
1, 19559, Note_on_c, 0, 86, 0
1, 19680, Note_on_c, 0, 69, 112
1, 19680, Note_on_c, 0, 81, 112
1, 19799, Note_on_c, 0, 69, 0
1, 19799, Note_on_c, 0, 81, 0
1, 20040, Note_on_c, 0, 68, 112
1, 20040, Note_on_c, 0, 80, 112
1, 20153, Note_on_c, 0, 68, 0
1, 20153, Note_on_c, 0, 80, 0
1, 20280, Note_on_c, 0, 67, 112
1, 20280, Note_on_c, 0, 79, 112
1, 20393, Note_on_c, 0, 67, 0
1, 20393, Note_on_c, 0, 79, 0
1, 20520, Note_on_c, 0, 65, 112
1, 20520, Note_on_c, 0, 77, 112
1, 20747, Note_on_c, 0, 65, 0
1, 20747, Note_on_c, 0, 77, 0
1, 20760, Note_on_c, 0, 62, 112
1, 20760, Note_on_c, 0, 74, 112
1, 20873, Note_on_c, 0, 62, 0
1, 20873, Note_on_c, 0, 74, 0
1, 20880, Note_on_c, 0, 65, 112
1, 20880, Note_on_c, 0, 77, 112
1, 20993, Note_on_c, 0, 65, 0
1, 20993, Note_on_c, 0, 77, 0
1, 21000, Note_on_c, 0, 67, 112
1, 21000, Note_on_c, 0, 79, 112
1, 21113, Note_on_c, 0, 67, 0
1, 21113, Note_on_c, 0, 79, 0
1, 21120, Note_on_c, 0, 58, 112
1, 21120, Note_on_c, 0, 70, 112
1, 21233, Note_on_c, 0, 58, 0
1, 21233, Note_on_c, 0, 70, 0
1, 21240, Note_on_c, 0, 58, 112
1, 21240, Note_on_c, 0, 70, 112
1, 21353, Note_on_c, 0, 58, 0
1, 21353, Note_on_c, 0, 70, 0
1, 21360, Note_on_c, 0, 74, 112
1, 21360, Note_on_c, 0, 86, 112
1, 21479, Note_on_c, 0, 74, 0
1, 21479, Note_on_c, 0, 86, 0
1, 21600, Note_on_c, 0, 69, 112
1, 21600, Note_on_c, 0, 81, 112
1, 21719, Note_on_c, 0, 69, 0
1, 21719, Note_on_c, 0, 81, 0
1, 21960, Note_on_c, 0, 68, 112
1, 21960, Note_on_c, 0, 80, 112
1, 22073, Note_on_c, 0, 68, 0
1, 22073, Note_on_c, 0, 80, 0
1, 22200, Note_on_c, 0, 67, 112
1, 22200, Note_on_c, 0, 79, 112
1, 22313, Note_on_c, 0, 67, 0
1, 22313, Note_on_c, 0, 79, 0
1, 22440, Note_on_c, 0, 65, 112
1, 22440, Note_on_c, 0, 77, 112
1, 22667, Note_on_c, 0, 65, 0
1, 22667, Note_on_c, 0, 77, 0
1, 22680, Note_on_c, 0, 62, 112
1, 22680, Note_on_c, 0, 74, 112
1, 22793, Note_on_c, 0, 62, 0
1, 22793, Note_on_c, 0, 74, 0
1, 22800, Note_on_c, 0, 65, 112
1, 22800, Note_on_c, 0, 77, 112
1, 22913, Note_on_c, 0, 65, 0
1, 22913, Note_on_c, 0, 77, 0
1, 22920, Note_on_c, 0, 67, 112
1, 22920, Note_on_c, 0, 79, 112
1, 23033, Note_on_c, 0, 67, 0
1, 23033, Note_on_c, 0, 79, 0
1, 23040, Note_on_c, 0, 62, 112
1, 23040, Note_on_c, 0, 74, 112
1, 23153, Note_on_c, 0, 62, 0
1, 23153, Note_on_c, 0, 74, 0
1, 23160, Note_on_c, 0, 62, 112
1, 23160, Note_on_c, 0, 74, 112
1, 23273, Note_on_c, 0, 62, 0
1, 23273, Note_on_c, 0, 74, 0
1, 23280, Note_on_c, 0, 74, 112
1, 23280, Note_on_c, 0, 86, 112
1, 23399, Note_on_c, 0, 74, 0
1, 23399, Note_on_c, 0, 86, 0
1, 23520, Note_on_c, 0, 69, 112
1, 23520, Note_on_c, 0, 81, 112
1, 23639, Note_on_c, 0, 69, 0
1, 23639, Note_on_c, 0, 81, 0
1, 23880, Note_on_c, 0, 68, 112
1, 23880, Note_on_c, 0, 80, 112
1, 23993, Note_on_c, 0, 68, 0
1, 23993, Note_on_c, 0, 80, 0
1, 24120, Note_on_c, 0, 67, 112
1, 24120, Note_on_c, 0, 79, 112
1, 24233, Note_on_c, 0, 67, 0
1, 24233, Note_on_c, 0, 79, 0
1, 24360, Note_on_c, 0, 65, 112
1, 24360, Note_on_c, 0, 77, 112
1, 24587, Note_on_c, 0, 65, 0
1, 24587, Note_on_c, 0, 77, 0
1, 24600, Note_on_c, 0, 62, 112
1, 24600, Note_on_c, 0, 74, 112
1, 24713, Note_on_c, 0, 62, 0
1, 24713, Note_on_c, 0, 74, 0
1, 24720, Note_on_c, 0, 65, 112
1, 24720, Note_on_c, 0, 77, 112
1, 24833, Note_on_c, 0, 65, 0
1, 24833, Note_on_c, 0, 77, 0
1, 24840, Note_on_c, 0, 67, 112
1, 24840, Note_on_c, 0, 79, 112
1, 24953, Note_on_c, 0, 67, 0
1, 24953, Note_on_c, 0, 79, 0
1, 24960, Note_on_c, 0, 60, 112
1, 24960, Note_on_c, 0, 72, 112
1, 25073, Note_on_c, 0, 60, 0
1, 25073, Note_on_c, 0, 72, 0
1, 25080, Note_on_c, 0, 60, 112
1, 25080, Note_on_c, 0, 72, 112
1, 25193, Note_on_c, 0, 60, 0
1, 25193, Note_on_c, 0, 72, 0
1, 25200, Note_on_c, 0, 74, 112
1, 25200, Note_on_c, 0, 86, 112
1, 25319, Note_on_c, 0, 74, 0
1, 25319, Note_on_c, 0, 86, 0
1, 25440, Note_on_c, 0, 69, 112
1, 25440, Note_on_c, 0, 81, 112
1, 25559, Note_on_c, 0, 69, 0
1, 25559, Note_on_c, 0, 81, 0
1, 25800, Note_on_c, 0, 68, 112
1, 25800, Note_on_c, 0, 80, 112
1, 25913, Note_on_c, 0, 68, 0
1, 25913, Note_on_c, 0, 80, 0
1, 26040, Note_on_c, 0, 67, 112
1, 26040, Note_on_c, 0, 79, 112
1, 26153, Note_on_c, 0, 67, 0
1, 26153, Note_on_c, 0, 79, 0
1, 26280, Note_on_c, 0, 65, 112
1, 26280, Note_on_c, 0, 77, 112
1, 26507, Note_on_c, 0, 65, 0
1, 26507, Note_on_c, 0, 77, 0
1, 26520, Note_on_c, 0, 62, 112
1, 26520, Note_on_c, 0, 74, 112
1, 26633, Note_on_c, 0, 62, 0
1, 26633, Note_on_c, 0, 74, 0
1, 26640, Note_on_c, 0, 65, 112
1, 26640, Note_on_c, 0, 77, 112
1, 26753, Note_on_c, 0, 65, 0
1, 26753, Note_on_c, 0, 77, 0
1, 26760, Note_on_c, 0, 67, 112
1, 26760, Note_on_c, 0, 79, 112
1, 26873, Note_on_c, 0, 67, 0
1, 26873, Note_on_c, 0, 79, 0
1, 26880, Note_on_c, 0, 59, 112
1, 26880, Note_on_c, 0, 71, 112
1, 26993, Note_on_c, 0, 59, 0
1, 26993, Note_on_c, 0, 71, 0
1, 27000, Note_on_c, 0, 59, 112
1, 27000, Note_on_c, 0, 71, 112
1, 27113, Note_on_c, 0, 59, 0
1, 27113, Note_on_c, 0, 71, 0
1, 27120, Note_on_c, 0, 74, 112
1, 27120, Note_on_c, 0, 86, 112
1, 27239, Note_on_c, 0, 74, 0
1, 27239, Note_on_c, 0, 86, 0
1, 27360, Note_on_c, 0, 69, 112
1, 27360, Note_on_c, 0, 81, 112
1, 27479, Note_on_c, 0, 69, 0
1, 27479, Note_on_c, 0, 81, 0
1, 27720, Note_on_c, 0, 68, 112
1, 27720, Note_on_c, 0, 80, 112
1, 27833, Note_on_c, 0, 68, 0
1, 27833, Note_on_c, 0, 80, 0
1, 27960, Note_on_c, 0, 67, 112
1, 27960, Note_on_c, 0, 79, 112
1, 28073, Note_on_c, 0, 67, 0
1, 28073, Note_on_c, 0, 79, 0
1, 28200, Note_on_c, 0, 65, 112
1, 28200, Note_on_c, 0, 77, 112
1, 28427, Note_on_c, 0, 65, 0
1, 28427, Note_on_c, 0, 77, 0
1, 28440, Note_on_c, 0, 62, 112
1, 28440, Note_on_c, 0, 74, 112
1, 28553, Note_on_c, 0, 62, 0
1, 28553, Note_on_c, 0, 74, 0
1, 28560, Note_on_c, 0, 65, 112
1, 28560, Note_on_c, 0, 77, 112
1, 28673, Note_on_c, 0, 65, 0
1, 28673, Note_on_c, 0, 77, 0
1, 28680, Note_on_c, 0, 67, 112
1, 28680, Note_on_c, 0, 79, 112
1, 28793, Note_on_c, 0, 67, 0
1, 28793, Note_on_c, 0, 79, 0
1, 28800, Note_on_c, 0, 58, 112
1, 28800, Note_on_c, 0, 70, 112
1, 28913, Note_on_c, 0, 58, 0
1, 28913, Note_on_c, 0, 70, 0
1, 28920, Note_on_c, 0, 58, 112
1, 28920, Note_on_c, 0, 70, 112
1, 29033, Note_on_c, 0, 58, 0
1, 29033, Note_on_c, 0, 70, 0
1, 29040, Note_on_c, 0, 74, 112
1, 29040, Note_on_c, 0, 86, 112
1, 29159, Note_on_c, 0, 74, 0
1, 29159, Note_on_c, 0, 86, 0
1, 29280, Note_on_c, 0, 69, 112
1, 29280, Note_on_c, 0, 81, 112
1, 29399, Note_on_c, 0, 69, 0
1, 29399, Note_on_c, 0, 81, 0
1, 29640, Note_on_c, 0, 68, 112
1, 29640, Note_on_c, 0, 80, 112
1, 29753, Note_on_c, 0, 68, 0
1, 29753, Note_on_c, 0, 80, 0
1, 29880, Note_on_c, 0, 67, 112
1, 29880, Note_on_c, 0, 79, 112
1, 29993, Note_on_c, 0, 67, 0
1, 29993, Note_on_c, 0, 79, 0
1, 30120, Note_on_c, 0, 65, 112
1, 30120, Note_on_c, 0, 77, 112
1, 30347, Note_on_c, 0, 65, 0
1, 30347, Note_on_c, 0, 77, 0
1, 30360, Note_on_c, 0, 62, 112
1, 30360, Note_on_c, 0, 74, 112
1, 30473, Note_on_c, 0, 62, 0
1, 30473, Note_on_c, 0, 74, 0
1, 30480, Note_on_c, 0, 72, 112
1, 30593, Note_on_c, 0, 72, 0
1, 30600, Note_on_c, 0, 74, 112
1, 30659, Note_on_c, 0, 74, 0
1, 30660, Note_on_c, 0, 76, 112
1, 30716, Note_on_c, 0, 76, 0
1, 30720, Note_on_c, 0, 76, 96
1, 30781, Note_on_c, 0, 76, 0
1, 30782, Note_on_c, 0, 77, 96
1, 30949, Note_on_c, 0, 77, 0
1, 30960, Note_on_c, 0, 77, 96
1, 31073, Note_on_c, 0, 77, 0
1, 31080, Note_on_c, 0, 77, 96
1, 31193, Note_on_c, 0, 77, 0
1, 31320, Note_on_c, 0, 77, 96
1, 31433, Note_on_c, 0, 77, 0
1, 31560, Note_on_c, 0, 76, 96
1, 31619, Note_on_c, 0, 76, 0
1, 31620, Note_on_c, 0, 77, 96
1, 31796, Note_on_c, 0, 77, 0
1, 31800, Note_on_c, 0, 74, 96
1, 31913, Note_on_c, 0, 74, 0
1, 32040, Note_on_c, 0, 74, 96
1, 32609, Note_on_c, 0, 74, 0
1, 32640, Note_on_c, 0, 77, 96
1, 32867, Note_on_c, 0, 77, 0
1, 32880, Note_on_c, 0, 77, 96
1, 32993, Note_on_c, 0, 77, 0
1, 33000, Note_on_c, 0, 77, 96
1, 33113, Note_on_c, 0, 77, 0
1, 33240, Note_on_c, 0, 79, 96
1, 33353, Note_on_c, 0, 79, 0
1, 33480, Note_on_c, 0, 80, 96
1, 33707, Note_on_c, 0, 80, 0
1, 33720, Note_on_c, 0, 79, 96
1, 33779, Note_on_c, 0, 79, 0
1, 33780, Note_on_c, 0, 80, 96
1, 33836, Note_on_c, 0, 80, 0
1, 33840, Note_on_c, 0, 79, 96
1, 33899, Note_on_c, 0, 79, 0
1, 33960, Note_on_c, 0, 74, 96
1, 34073, Note_on_c, 0, 74, 0
1, 34080, Note_on_c, 0, 77, 96
1, 34199, Note_on_c, 0, 77, 0
1, 34200, Note_on_c, 0, 79, 96
1, 34313, Note_on_c, 0, 79, 0
1, 34560, Note_on_c, 0, 77, 96
1, 34787, Note_on_c, 0, 77, 0
1, 34800, Note_on_c, 0, 77, 96
1, 34913, Note_on_c, 0, 77, 0
1, 34920, Note_on_c, 0, 77, 96
1, 34979, Note_on_c, 0, 77, 0
1, 35160, Note_on_c, 0, 79, 96
1, 35273, Note_on_c, 0, 79, 0
1, 35400, Note_on_c, 0, 80, 96
1, 35513, Note_on_c, 0, 80, 0
1, 35640, Note_on_c, 0, 81, 96
1, 35699, Note_on_c, 0, 81, 0
1, 35880, Note_on_c, 0, 84, 96
1, 35993, Note_on_c, 0, 84, 0
1, 36120, Note_on_c, 0, 81, 96
1, 36461, Note_on_c, 0, 81, 0
1, 36480, Note_on_c, 0, 86, 96
1, 36707, Note_on_c, 0, 86, 0
1, 36720, Note_on_c, 0, 86, 96
1, 36947, Note_on_c, 0, 86, 0
1, 36960, Note_on_c, 0, 86, 96
1, 37073, Note_on_c, 0, 86, 0
1, 37080, Note_on_c, 0, 81, 96
1, 37193, Note_on_c, 0, 81, 0
1, 37200, Note_on_c, 0, 86, 96
1, 37313, Note_on_c, 0, 86, 0
1, 37320, Note_on_c, 0, 84, 96
1, 37800, Note_on_c, 0, 91, 96
1, 38345, Note_on_c, 0, 84, 0
1, 38369, Note_on_c, 0, 91, 0
1, 38400, Note_on_c, 0, 77, 96
1, 38400, Note_on_c, 0, 81, 96
1, 38627, Note_on_c, 0, 77, 0
1, 38627, Note_on_c, 0, 81, 0
1, 38640, Note_on_c, 0, 77, 96
1, 38640, Note_on_c, 0, 81, 96
1, 38753, Note_on_c, 0, 77, 0
1, 38753, Note_on_c, 0, 81, 0
1, 38760, Note_on_c, 0, 77, 96
1, 38760, Note_on_c, 0, 81, 96
1, 38873, Note_on_c, 0, 77, 0
1, 38873, Note_on_c, 0, 81, 0
1, 39000, Note_on_c, 0, 77, 96
1, 39000, Note_on_c, 0, 81, 96
1, 39113, Note_on_c, 0, 77, 0
1, 39113, Note_on_c, 0, 81, 0
1, 39240, Note_on_c, 0, 76, 96
1, 39240, Note_on_c, 0, 80, 96
1, 39299, Note_on_c, 0, 76, 0
1, 39299, Note_on_c, 0, 80, 0
1, 39300, Note_on_c, 0, 77, 96
1, 39300, Note_on_c, 0, 81, 96
1, 39470, Note_on_c, 0, 77, 0
1, 39470, Note_on_c, 0, 81, 0
1, 39480, Note_on_c, 0, 74, 96
1, 39480, Note_on_c, 0, 79, 96
1, 39593, Note_on_c, 0, 74, 0
1, 39593, Note_on_c, 0, 79, 0
1, 39720, Note_on_c, 0, 74, 96
1, 39720, Note_on_c, 0, 79, 96
1, 40289, Note_on_c, 0, 74, 0
1, 40289, Note_on_c, 0, 79, 0
1, 40320, Note_on_c, 0, 77, 96
1, 40320, Note_on_c, 0, 81, 96
1, 40547, Note_on_c, 0, 77, 0
1, 40547, Note_on_c, 0, 81, 0
1, 40560, Note_on_c, 0, 77, 96
1, 40560, Note_on_c, 0, 81, 96
1, 40787, Note_on_c, 0, 77, 0
1, 40787, Note_on_c, 0, 81, 0
1, 40800, Note_on_c, 0, 77, 96
1, 40800, Note_on_c, 0, 81, 96
1, 40913, Note_on_c, 0, 77, 0
1, 40913, Note_on_c, 0, 81, 0
1, 40920, Note_on_c, 0, 77, 96
1, 40920, Note_on_c, 0, 81, 96
1, 40979, Note_on_c, 0, 77, 0
1, 40979, Note_on_c, 0, 81, 0
1, 41160, Note_on_c, 0, 74, 96
1, 41160, Note_on_c, 0, 79, 96
1, 41219, Note_on_c, 0, 74, 0
1, 41219, Note_on_c, 0, 79, 0
1, 41400, Note_on_c, 0, 77, 96
1, 41400, Note_on_c, 0, 81, 96
1, 41459, Note_on_c, 0, 77, 0
1, 41459, Note_on_c, 0, 81, 0
1, 41640, Note_on_c, 0, 76, 96
1, 41640, Note_on_c, 0, 86, 96
1, 41867, Note_on_c, 0, 76, 0
1, 41867, Note_on_c, 0, 86, 0
1, 41880, Note_on_c, 0, 74, 96
1, 41880, Note_on_c, 0, 81, 96
1, 41993, Note_on_c, 0, 74, 0
1, 41993, Note_on_c, 0, 81, 0
1, 42000, Note_on_c, 0, 72, 96
1, 42000, Note_on_c, 0, 79, 96
1, 42227, Note_on_c, 0, 72, 0
1, 42227, Note_on_c, 0, 79, 0
1, 42240, Note_on_c, 0, 77, 115
1, 42240, Note_on_c, 0, 86, 115
1, 42300, Control_c, 0, 2, 115
1, 42306, Control_c, 0, 2, 114
1, 42309, Control_c, 0, 2, 113
1, 42312, Control_c, 0, 2, 112
1, 42315, Control_c, 0, 2, 111
1, 42318, Control_c, 0, 2, 110
1, 42321, Control_c, 0, 2, 109
1, 42324, Control_c, 0, 2, 108
1, 42327, Control_c, 0, 2, 107
1, 42330, Control_c, 0, 2, 106
1, 42333, Control_c, 0, 2, 105
1, 42336, Control_c, 0, 2, 104
1, 42339, Control_c, 0, 2, 103
1, 42342, Control_c, 0, 2, 102
1, 42345, Control_c, 0, 2, 101
1, 42348, Control_c, 0, 2, 100
1, 42351, Control_c, 0, 2, 99
1, 42354, Control_c, 0, 2, 98
1, 42357, Control_c, 0, 2, 97
1, 42479, Note_on_c, 0, 77, 0
1, 42479, Note_on_c, 0, 86, 0
1, 42480, Note_on_c, 0, 81, 115
1, 42540, Control_c, 0, 2, 115
1, 42546, Control_c, 0, 2, 114
1, 42549, Control_c, 0, 2, 113
1, 42552, Control_c, 0, 2, 112
1, 42555, Control_c, 0, 2, 111
1, 42558, Control_c, 0, 2, 110
1, 42561, Control_c, 0, 2, 109
1, 42564, Control_c, 0, 2, 108
1, 42567, Control_c, 0, 2, 107
1, 42570, Control_c, 0, 2, 106
1, 42573, Control_c, 0, 2, 105
1, 42576, Control_c, 0, 2, 104
1, 42579, Control_c, 0, 2, 103
1, 42582, Control_c, 0, 2, 102
1, 42585, Control_c, 0, 2, 101
1, 42588, Control_c, 0, 2, 100
1, 42591, Control_c, 0, 2, 99
1, 42594, Control_c, 0, 2, 98
1, 42597, Control_c, 0, 2, 97
1, 42719, Note_on_c, 0, 81, 0
1, 42720, Note_on_c, 0, 79, 115
1, 42780, Control_c, 0, 2, 115
1, 42786, Control_c, 0, 2, 114
1, 42789, Control_c, 0, 2, 113
1, 42792, Control_c, 0, 2, 112
1, 42795, Control_c, 0, 2, 111
1, 42798, Control_c, 0, 2, 110
1, 42801, Control_c, 0, 2, 109
1, 42804, Control_c, 0, 2, 108
1, 42807, Control_c, 0, 2, 107
1, 42810, Control_c, 0, 2, 106
1, 42813, Control_c, 0, 2, 105
1, 42816, Control_c, 0, 2, 104
1, 42819, Control_c, 0, 2, 103
1, 42822, Control_c, 0, 2, 102
1, 42825, Control_c, 0, 2, 101
1, 42828, Control_c, 0, 2, 100
1, 42831, Control_c, 0, 2, 99
1, 42834, Control_c, 0, 2, 98
1, 42837, Control_c, 0, 2, 97
1, 42959, Note_on_c, 0, 79, 0
1, 42960, Note_on_c, 0, 77, 115
1, 43020, Control_c, 0, 2, 115
1, 43026, Control_c, 0, 2, 114
1, 43029, Control_c, 0, 2, 113
1, 43032, Control_c, 0, 2, 112
1, 43035, Control_c, 0, 2, 111
1, 43038, Control_c, 0, 2, 110
1, 43041, Control_c, 0, 2, 109
1, 43044, Control_c, 0, 2, 108
1, 43047, Control_c, 0, 2, 107
1, 43050, Control_c, 0, 2, 106
1, 43053, Control_c, 0, 2, 105
1, 43056, Control_c, 0, 2, 104
1, 43059, Control_c, 0, 2, 103
1, 43062, Control_c, 0, 2, 102
1, 43065, Control_c, 0, 2, 101
1, 43068, Control_c, 0, 2, 100
1, 43071, Control_c, 0, 2, 99
1, 43074, Control_c, 0, 2, 98
1, 43077, Control_c, 0, 2, 97
1, 43199, Note_on_c, 0, 77, 0
1, 43200, Note_on_c, 0, 76, 115
1, 43200, Note_on_c, 0, 84, 115
1, 43260, Control_c, 0, 2, 115
1, 43266, Control_c, 0, 2, 114
1, 43269, Control_c, 0, 2, 113
1, 43272, Control_c, 0, 2, 112
1, 43275, Control_c, 0, 2, 111
1, 43278, Control_c, 0, 2, 110
1, 43281, Control_c, 0, 2, 109
1, 43284, Control_c, 0, 2, 108
1, 43287, Control_c, 0, 2, 107
1, 43290, Control_c, 0, 2, 106
1, 43293, Control_c, 0, 2, 105
1, 43296, Control_c, 0, 2, 104
1, 43299, Control_c, 0, 2, 103
1, 43302, Control_c, 0, 2, 102
1, 43305, Control_c, 0, 2, 101
1, 43308, Control_c, 0, 2, 100
1, 43311, Control_c, 0, 2, 99
1, 43314, Control_c, 0, 2, 98
1, 43317, Control_c, 0, 2, 97
1, 43439, Note_on_c, 0, 76, 0
1, 43439, Note_on_c, 0, 84, 0
1, 43440, Note_on_c, 0, 79, 115
1, 43500, Control_c, 0, 2, 115
1, 43506, Control_c, 0, 2, 114
1, 43509, Control_c, 0, 2, 113
1, 43512, Control_c, 0, 2, 112
1, 43515, Control_c, 0, 2, 111
1, 43518, Control_c, 0, 2, 110
1, 43521, Control_c, 0, 2, 109
1, 43524, Control_c, 0, 2, 108
1, 43527, Control_c, 0, 2, 107
1, 43530, Control_c, 0, 2, 106
1, 43533, Control_c, 0, 2, 105
1, 43536, Control_c, 0, 2, 104
1, 43539, Control_c, 0, 2, 103
1, 43542, Control_c, 0, 2, 102
1, 43545, Control_c, 0, 2, 101
1, 43548, Control_c, 0, 2, 100
1, 43551, Control_c, 0, 2, 99
1, 43554, Control_c, 0, 2, 98
1, 43557, Control_c, 0, 2, 97
1, 43679, Note_on_c, 0, 79, 0
1, 43680, Note_on_c, 0, 77, 115
1, 43740, Control_c, 0, 2, 115
1, 43746, Control_c, 0, 2, 114
1, 43749, Control_c, 0, 2, 113
1, 43752, Control_c, 0, 2, 112
1, 43755, Control_c, 0, 2, 111
1, 43758, Control_c, 0, 2, 110
1, 43761, Control_c, 0, 2, 109
1, 43764, Control_c, 0, 2, 108
1, 43767, Control_c, 0, 2, 107
1, 43770, Control_c, 0, 2, 106
1, 43773, Control_c, 0, 2, 105
1, 43776, Control_c, 0, 2, 104
1, 43779, Control_c, 0, 2, 103
1, 43782, Control_c, 0, 2, 102
1, 43785, Control_c, 0, 2, 101
1, 43788, Control_c, 0, 2, 100
1, 43791, Control_c, 0, 2, 99
1, 43794, Control_c, 0, 2, 98
1, 43797, Control_c, 0, 2, 97
1, 43919, Note_on_c, 0, 77, 0
1, 43920, Note_on_c, 0, 76, 115
1, 43980, Control_c, 0, 2, 115
1, 43986, Control_c, 0, 2, 114
1, 43989, Control_c, 0, 2, 113
1, 43992, Control_c, 0, 2, 112
1, 43995, Control_c, 0, 2, 111
1, 43998, Control_c, 0, 2, 110
1, 44001, Control_c, 0, 2, 109
1, 44004, Control_c, 0, 2, 108
1, 44007, Control_c, 0, 2, 107
1, 44010, Control_c, 0, 2, 106
1, 44013, Control_c, 0, 2, 105
1, 44016, Control_c, 0, 2, 104
1, 44019, Control_c, 0, 2, 103
1, 44022, Control_c, 0, 2, 102
1, 44025, Control_c, 0, 2, 101
1, 44028, Control_c, 0, 2, 100
1, 44031, Control_c, 0, 2, 99
1, 44034, Control_c, 0, 2, 98
1, 44037, Control_c, 0, 2, 97
1, 44159, Note_on_c, 0, 76, 0
1, 44160, Note_on_c, 0, 67, 48
1, 44160, Note_on_c, 0, 70, 96
1, 44387, Note_on_c, 0, 67, 0
1, 44387, Note_on_c, 0, 70, 0
1, 44400, Note_on_c, 0, 70, 96
1, 44400, Note_on_c, 0, 74, 96
1, 44400, Note_on_c, 0, 74, 0
1, 44519, Note_on_c, 0, 70, 0
1, 44520, Note_on_c, 0, 72, 96
1, 44520, Note_on_c, 0, 76, 96
1, 44639, Note_on_c, 0, 72, 0
1, 44639, Note_on_c, 0, 76, 0
1, 44760, Note_on_c, 0, 74, 96
1, 44760, Note_on_c, 0, 77, 96
1, 44879, Note_on_c, 0, 74, 0
1, 44879, Note_on_c, 0, 77, 0
1, 45000, Note_on_c, 0, 76, 96
1, 45000, Note_on_c, 0, 84, 96
1, 46025, Note_on_c, 0, 76, 0
1, 46025, Note_on_c, 0, 84, 0
1, 47040, Note_on_c, 0, 74, 96
1, 47040, Note_on_c, 0, 77, 96
1, 47153, Note_on_c, 0, 74, 0
1, 47153, Note_on_c, 0, 77, 0
1, 47160, Note_on_c, 0, 70, 96
1, 47160, Note_on_c, 0, 74, 96
1, 47273, Note_on_c, 0, 70, 0
1, 47273, Note_on_c, 0, 74, 0
1, 47280, Note_on_c, 0, 74, 96
1, 47280, Note_on_c, 0, 77, 96
1, 47393, Note_on_c, 0, 74, 0
1, 47393, Note_on_c, 0, 77, 0
1, 47400, Note_on_c, 0, 74, 96
1, 47400, Note_on_c, 0, 79, 96
1, 47513, Note_on_c, 0, 74, 0
1, 47513, Note_on_c, 0, 79, 0
1, 47520, Note_on_c, 0, 74, 96
1, 47520, Note_on_c, 0, 80, 96
1, 47633, Note_on_c, 0, 74, 0
1, 47633, Note_on_c, 0, 80, 0
1, 47640, Note_on_c, 0, 74, 96
1, 47640, Note_on_c, 0, 79, 96
1, 47753, Note_on_c, 0, 74, 0
1, 47753, Note_on_c, 0, 79, 0
1, 47760, Note_on_c, 0, 74, 96
1, 47760, Note_on_c, 0, 77, 96
1, 47873, Note_on_c, 0, 74, 0
1, 47873, Note_on_c, 0, 77, 0
1, 47880, Note_on_c, 0, 70, 96
1, 47880, Note_on_c, 0, 74, 96
1, 47993, Note_on_c, 0, 70, 0
1, 47993, Note_on_c, 0, 74, 0
1, 48000, Note_on_c, 0, 77, 96
1, 48000, Note_on_c, 0, 80, 96
1, 48059, Note_on_c, 0, 77, 0
1, 48059, Note_on_c, 0, 80, 0
1, 48060, Note_on_c, 0, 76, 96
1, 48060, Note_on_c, 0, 79, 96
1, 48119, Note_on_c, 0, 76, 0
1, 48119, Note_on_c, 0, 79, 0
1, 48120, Note_on_c, 0, 74, 96
1, 48233, Note_on_c, 0, 74, 0
1, 48240, Note_on_c, 0, 74, 96
1, 48240, Note_on_c, 0, 77, 96
1, 48467, Note_on_c, 0, 74, 0
1, 48467, Note_on_c, 0, 77, 0
1, 48480, Note_on_c, 0, 76, 96
1, 48480, Note_on_c, 0, 79, 96
1, 49391, Note_on_c, 0, 76, 0
1, 49505, Note_on_c, 0, 79, 0
1, 49560, Note_on_c, 0, 80, 96
1, 49799, Note_on_c, 0, 80, 0
1, 49800, Note_on_c, 0, 81, 96
1, 49913, Note_on_c, 0, 81, 0
1, 49920, Note_on_c, 0, 84, 96
1, 50033, Note_on_c, 0, 84, 0
1, 50160, Note_on_c, 0, 81, 96
1, 50273, Note_on_c, 0, 81, 0
1, 50280, Note_on_c, 0, 80, 96
1, 50393, Note_on_c, 0, 80, 0
1, 50400, Note_on_c, 0, 79, 96
1, 50513, Note_on_c, 0, 79, 0
1, 50520, Note_on_c, 0, 77, 96
1, 50633, Note_on_c, 0, 77, 0
1, 50640, Note_on_c, 0, 74, 96
1, 50753, Note_on_c, 0, 74, 0
1, 50760, Note_on_c, 0, 76, 96
1, 50873, Note_on_c, 0, 76, 0
1, 50880, Note_on_c, 0, 77, 96
1, 51107, Note_on_c, 0, 77, 0
1, 51120, Note_on_c, 0, 79, 96
1, 51347, Note_on_c, 0, 79, 0
1, 51360, Note_on_c, 0, 81, 96
1, 51587, Note_on_c, 0, 81, 0
1, 51600, Note_on_c, 0, 84, 96
1, 51827, Note_on_c, 0, 84, 0
1, 51840, Note_on_c, 0, 85, 96
1, 52079, Note_on_c, 0, 85, 0
1, 52080, Note_on_c, 0, 80, 96
1, 52193, Note_on_c, 0, 80, 0
1, 52320, Note_on_c, 0, 80, 96
1, 52439, Note_on_c, 0, 80, 0
1, 52440, Note_on_c, 0, 79, 96
1, 52559, Note_on_c, 0, 79, 0
1, 52560, Note_on_c, 0, 77, 96
1, 52679, Note_on_c, 0, 77, 0
1, 52680, Note_on_c, 0, 79, 96
1, 53705, Note_on_c, 0, 79, 0
1, 53760, Note_on_c, 0, 65, 96
1, 53760, Note_on_c, 0, 74, 96
1, 53987, Note_on_c, 0, 65, 0
1, 53987, Note_on_c, 0, 74, 0
1, 54000, Note_on_c, 0, 67, 96
1, 54000, Note_on_c, 0, 76, 96
1, 54227, Note_on_c, 0, 67, 0
1, 54227, Note_on_c, 0, 76, 0
1, 54240, Note_on_c, 0, 69, 96
1, 54240, Note_on_c, 0, 77, 96
1, 54467, Note_on_c, 0, 69, 0
1, 54467, Note_on_c, 0, 77, 0
1, 54480, Note_on_c, 0, 81, 96
1, 54480, Note_on_c, 0, 89, 96
1, 54707, Note_on_c, 0, 81, 0
1, 54707, Note_on_c, 0, 89, 0
1, 54720, Note_on_c, 0, 79, 96
1, 54720, Note_on_c, 0, 88, 96
1, 55175, Note_on_c, 0, 79, 0
1, 55175, Note_on_c, 0, 88, 0
1, 55200, Note_on_c, 0, 77, 96
1, 55200, Note_on_c, 0, 86, 96
1, 55655, Note_on_c, 0, 77, 0
1, 55655, Note_on_c, 0, 86, 0
1, 55680, Note_on_c, 0, 79, 96
1, 55680, Note_on_c, 0, 88, 96
1, 56135, Note_on_c, 0, 79, 0
1, 56135, Note_on_c, 0, 88, 0
1, 56160, Note_on_c, 0, 81, 96
1, 56160, Note_on_c, 0, 89, 96
1, 56615, Note_on_c, 0, 81, 0
1, 56615, Note_on_c, 0, 89, 0
1, 56640, Note_on_c, 0, 84, 96
1, 56640, Note_on_c, 0, 91, 96
1, 57095, Note_on_c, 0, 84, 0
1, 57095, Note_on_c, 0, 91, 0
1, 57120, Note_on_c, 0, 81, 96
1, 57120, Note_on_c, 0, 88, 96
1, 57575, Note_on_c, 0, 81, 0
1, 57575, Note_on_c, 0, 88, 0
1, 57600, Note_on_c, 0, 93, 96
1, 57600, Note_on_c, 0, 86, 96
1, 58511, Note_on_c, 0, 93, 0
1, 58560, Note_on_c, 0, 93, 96
1, 58673, Note_on_c, 0, 93, 0
1, 58680, Note_on_c, 0, 92, 96
1, 58793, Note_on_c, 0, 92, 0
1, 58800, Note_on_c, 0, 91, 96
1, 58913, Note_on_c, 0, 91, 0
1, 58920, Note_on_c, 0, 90, 96
1, 59033, Note_on_c, 0, 90, 0
1, 59040, Note_on_c, 0, 89, 96
1, 59153, Note_on_c, 0, 89, 0
1, 59160, Note_on_c, 0, 88, 96
1, 59273, Note_on_c, 0, 88, 0
1, 59280, Note_on_c, 0, 87, 96
1, 59393, Note_on_c, 0, 87, 0
1, 59400, Note_on_c, 0, 86, 0
1, 59400, Note_on_c, 0, 86, 96
1, 59513, Note_on_c, 0, 86, 0
1, 59520, Note_on_c, 0, 80, 96
1, 59520, Note_on_c, 0, 85, 96
1, 60000, Note_on_c, 0, 86, 96
1, 60431, Note_on_c, 0, 80, 0
1, 60431, Note_on_c, 0, 85, 0
1, 60480, Note_on_c, 0, 82, 96
1, 60480, Note_on_c, 0, 87, 96
1, 61367, Note_on_c, 0, 86, 0
1, 61391, Note_on_c, 0, 82, 0
1, 61391, Note_on_c, 0, 87, 0
1, 62400, Note_on_c, 0, 74, 96
1, 62400, Note_on_c, 0, 77, 96
1, 62513, Note_on_c, 0, 74, 0
1, 62513, Note_on_c, 0, 77, 0
1, 62520, Note_on_c, 0, 70, 96
1, 62520, Note_on_c, 0, 74, 96
1, 62633, Note_on_c, 0, 70, 0
1, 62633, Note_on_c, 0, 74, 0
1, 62640, Note_on_c, 0, 74, 96
1, 62640, Note_on_c, 0, 77, 96
1, 62753, Note_on_c, 0, 74, 0
1, 62753, Note_on_c, 0, 77, 0
1, 62760, Note_on_c, 0, 74, 96
1, 62760, Note_on_c, 0, 79, 96
1, 62873, Note_on_c, 0, 74, 0
1, 62873, Note_on_c, 0, 79, 0
1, 62880, Note_on_c, 0, 74, 96
1, 62880, Note_on_c, 0, 80, 96
1, 62993, Note_on_c, 0, 74, 0
1, 62993, Note_on_c, 0, 80, 0
1, 63000, Note_on_c, 0, 74, 96
1, 63000, Note_on_c, 0, 79, 96
1, 63113, Note_on_c, 0, 74, 0
1, 63113, Note_on_c, 0, 79, 0
1, 63120, Note_on_c, 0, 74, 96
1, 63120, Note_on_c, 0, 77, 96
1, 63233, Note_on_c, 0, 74, 0
1, 63233, Note_on_c, 0, 77, 0
1, 63240, Note_on_c, 0, 70, 96
1, 63240, Note_on_c, 0, 74, 96
1, 63353, Note_on_c, 0, 70, 0
1, 63353, Note_on_c, 0, 74, 0
1, 63360, Note_on_c, 0, 77, 96
1, 63360, Note_on_c, 0, 80, 96
1, 63419, Note_on_c, 0, 77, 0
1, 63419, Note_on_c, 0, 80, 0
1, 63420, Note_on_c, 0, 76, 96
1, 63420, Note_on_c, 0, 79, 96
1, 63479, Note_on_c, 0, 76, 0
1, 63479, Note_on_c, 0, 79, 0
1, 63480, Note_on_c, 0, 74, 96
1, 63593, Note_on_c, 0, 74, 0
1, 63600, Note_on_c, 0, 74, 96
1, 63600, Note_on_c, 0, 77, 96
1, 63827, Note_on_c, 0, 74, 0
1, 63827, Note_on_c, 0, 77, 0
1, 63840, Note_on_c, 0, 76, 96
1, 63840, Note_on_c, 0, 79, 96
1, 64751, Note_on_c, 0, 76, 0
1, 64865, Note_on_c, 0, 79, 0
1, 64920, Note_on_c, 0, 80, 96
1, 65159, Note_on_c, 0, 80, 0
1, 65160, Note_on_c, 0, 81, 96
1, 65273, Note_on_c, 0, 81, 0
1, 65280, Note_on_c, 0, 84, 96
1, 65393, Note_on_c, 0, 84, 0
1, 65520, Note_on_c, 0, 81, 96
1, 65633, Note_on_c, 0, 81, 0
1, 65640, Note_on_c, 0, 80, 96
1, 65753, Note_on_c, 0, 80, 0
1, 65760, Note_on_c, 0, 79, 96
1, 65873, Note_on_c, 0, 79, 0
1, 65880, Note_on_c, 0, 77, 96
1, 65993, Note_on_c, 0, 77, 0
1, 66000, Note_on_c, 0, 74, 96
1, 66113, Note_on_c, 0, 74, 0
1, 66120, Note_on_c, 0, 76, 96
1, 66233, Note_on_c, 0, 76, 0
1, 66240, Note_on_c, 0, 77, 96
1, 66467, Note_on_c, 0, 77, 0
1, 66480, Note_on_c, 0, 79, 96
1, 66707, Note_on_c, 0, 79, 0
1, 66720, Note_on_c, 0, 81, 96
1, 66947, Note_on_c, 0, 81, 0
1, 66960, Note_on_c, 0, 84, 96
1, 67187, Note_on_c, 0, 84, 0
1, 67200, Note_on_c, 0, 85, 96
1, 67439, Note_on_c, 0, 85, 0
1, 67440, Note_on_c, 0, 80, 96
1, 67553, Note_on_c, 0, 80, 0
1, 67680, Note_on_c, 0, 80, 96
1, 67799, Note_on_c, 0, 80, 0
1, 67800, Note_on_c, 0, 79, 96
1, 67919, Note_on_c, 0, 79, 0
1, 67920, Note_on_c, 0, 77, 96
1, 68039, Note_on_c, 0, 77, 0
1, 68040, Note_on_c, 0, 79, 96
1, 69065, Note_on_c, 0, 79, 0
1, 69120, Note_on_c, 0, 65, 96
1, 69120, Note_on_c, 0, 74, 96
1, 69347, Note_on_c, 0, 65, 0
1, 69347, Note_on_c, 0, 74, 0
1, 69360, Note_on_c, 0, 67, 96
1, 69360, Note_on_c, 0, 76, 96
1, 69587, Note_on_c, 0, 67, 0
1, 69587, Note_on_c, 0, 76, 0
1, 69600, Note_on_c, 0, 69, 96
1, 69600, Note_on_c, 0, 77, 96
1, 69827, Note_on_c, 0, 69, 0
1, 69827, Note_on_c, 0, 77, 0
1, 69840, Note_on_c, 0, 81, 96
1, 69840, Note_on_c, 0, 89, 96
1, 70067, Note_on_c, 0, 81, 0
1, 70067, Note_on_c, 0, 89, 0
1, 70080, Note_on_c, 0, 79, 96
1, 70080, Note_on_c, 0, 88, 96
1, 70535, Note_on_c, 0, 79, 0
1, 70535, Note_on_c, 0, 88, 0
1, 70560, Note_on_c, 0, 77, 96
1, 70560, Note_on_c, 0, 86, 96
1, 71015, Note_on_c, 0, 77, 0
1, 71015, Note_on_c, 0, 86, 0
1, 71040, Note_on_c, 0, 79, 96
1, 71040, Note_on_c, 0, 88, 96
1, 71495, Note_on_c, 0, 79, 0
1, 71495, Note_on_c, 0, 88, 0
1, 71520, Note_on_c, 0, 81, 96
1, 71520, Note_on_c, 0, 89, 96
1, 71975, Note_on_c, 0, 81, 0
1, 71975, Note_on_c, 0, 89, 0
1, 72000, Note_on_c, 0, 84, 96
1, 72000, Note_on_c, 0, 91, 96
1, 72455, Note_on_c, 0, 84, 0
1, 72455, Note_on_c, 0, 91, 0
1, 72480, Note_on_c, 0, 81, 96
1, 72480, Note_on_c, 0, 88, 96
1, 72935, Note_on_c, 0, 81, 0
1, 72935, Note_on_c, 0, 88, 0
1, 72960, Note_on_c, 0, 93, 96
1, 72960, Note_on_c, 0, 86, 96
1, 73871, Note_on_c, 0, 93, 0
1, 73920, Note_on_c, 0, 93, 96
1, 74033, Note_on_c, 0, 93, 0
1, 74040, Note_on_c, 0, 92, 96
1, 74153, Note_on_c, 0, 92, 0
1, 74160, Note_on_c, 0, 91, 96
1, 74273, Note_on_c, 0, 91, 0
1, 74280, Note_on_c, 0, 90, 96
1, 74393, Note_on_c, 0, 90, 0
1, 74400, Note_on_c, 0, 89, 96
1, 74513, Note_on_c, 0, 89, 0
1, 74520, Note_on_c, 0, 88, 96
1, 74633, Note_on_c, 0, 88, 0
1, 74640, Note_on_c, 0, 87, 96
1, 74753, Note_on_c, 0, 87, 0
1, 74760, Note_on_c, 0, 86, 0
1, 74760, Note_on_c, 0, 86, 96
1, 74873, Note_on_c, 0, 86, 0
1, 74880, Note_on_c, 0, 80, 96
1, 74880, Note_on_c, 0, 85, 96
1, 75360, Note_on_c, 0, 86, 96
1, 75791, Note_on_c, 0, 80, 0
1, 75791, Note_on_c, 0, 85, 0
1, 75840, Note_on_c, 0, 82, 96
1, 75840, Note_on_c, 0, 87, 96
1, 76727, Note_on_c, 0, 86, 0
1, 76751, Note_on_c, 0, 82, 0
1, 76751, Note_on_c, 0, 87, 0
1, 76800, Note_on_c, 0, 58, 80
1, 78239, Note_on_c, 0, 58, 0
1, 78240, Note_on_c, 0, 65, 80
1, 78695, Note_on_c, 0, 65, 0
1, 78720, Note_on_c, 0, 64, 80
1, 79679, Note_on_c, 0, 64, 0
1, 79680, Note_on_c, 0, 62, 80
1, 80591, Note_on_c, 0, 62, 0
1, 80640, Note_on_c, 0, 65, 80
1, 82463, Note_on_c, 0, 65, 0
1, 84480, Note_on_c, 0, 58, 80
1, 85919, Note_on_c, 0, 58, 0
1, 85920, Note_on_c, 0, 65, 80
1, 86375, Note_on_c, 0, 65, 0
1, 86400, Note_on_c, 0, 64, 80
1, 87359, Note_on_c, 0, 64, 0
1, 87360, Note_on_c, 0, 62, 80
1, 88271, Note_on_c, 0, 62, 0
1, 88320, Note_on_c, 0, 62, 80
1, 90599, Note_on_c, 0, 62, 0
1, 90720, Note_on_c, 0, 62, 80
1, 90720, Note_on_c, 0, 62, 0
1, 90720, Note_on_c, 0, 62, 80
1, 90720, Note_on_c, 0, 62, 0
1, 90720, Note_on_c, 0, 62, 80
1, 90798, Note_on_c, 0, 62, 0
1, 90799, Note_on_c, 0, 61, 80
1, 90799, Note_on_c, 0, 61, 0
1, 90799, Note_on_c, 0, 61, 80
1, 90799, Note_on_c, 0, 61, 0
1, 90799, Note_on_c, 0, 61, 80
1, 90877, Note_on_c, 0, 61, 0
1, 90879, Note_on_c, 0, 60, 80
1, 90879, Note_on_c, 0, 60, 0
1, 90879, Note_on_c, 0, 60, 80
1, 90879, Note_on_c, 0, 60, 0
1, 90879, Note_on_c, 0, 60, 80
1, 90957, Note_on_c, 0, 60, 0
1, 90960, Note_on_c, 0, 59, 80
1, 90960, Note_on_c, 0, 59, 0
1, 90960, Note_on_c, 0, 59, 80
1, 90960, Note_on_c, 0, 59, 0
1, 90960, Note_on_c, 0, 59, 80
1, 91038, Note_on_c, 0, 59, 0
1, 91039, Note_on_c, 0, 58, 80
1, 91039, Note_on_c, 0, 58, 0
1, 91039, Note_on_c, 0, 58, 80
1, 91039, Note_on_c, 0, 58, 0
1, 91039, Note_on_c, 0, 58, 80
1, 91117, Note_on_c, 0, 58, 0
1, 91119, Note_on_c, 0, 57, 80
1, 91119, Note_on_c, 0, 57, 0
1, 91119, Note_on_c, 0, 57, 80
1, 91119, Note_on_c, 0, 57, 0
1, 91119, Note_on_c, 0, 57, 80
1, 91197, Note_on_c, 0, 57, 0
1, 91200, Note_on_c, 0, 56, 80
1, 91200, Note_on_c, 0, 56, 0
1, 91200, Note_on_c, 0, 56, 80
1, 91200, Note_on_c, 0, 56, 0
1, 91200, Note_on_c, 0, 56, 80
1, 91278, Note_on_c, 0, 56, 0
1, 91279, Note_on_c, 0, 55, 80
1, 91279, Note_on_c, 0, 55, 0
1, 91279, Note_on_c, 0, 55, 80
1, 91279, Note_on_c, 0, 55, 0
1, 91279, Note_on_c, 0, 55, 80
1, 91357, Note_on_c, 0, 55, 0
1, 91359, Note_on_c, 0, 54, 80
1, 91359, Note_on_c, 0, 54, 0
1, 91359, Note_on_c, 0, 54, 80
1, 91359, Note_on_c, 0, 54, 0
1, 91359, Note_on_c, 0, 54, 80
1, 91437, Note_on_c, 0, 54, 0
1, 91440, Note_on_c, 0, 53, 80
1, 91440, Note_on_c, 0, 53, 0
1, 91440, Note_on_c, 0, 53, 80
1, 91440, Note_on_c, 0, 53, 0
1, 91440, Note_on_c, 0, 53, 80
1, 91518, Note_on_c, 0, 53, 0
1, 91519, Note_on_c, 0, 52, 80
1, 91519, Note_on_c, 0, 52, 0
1, 91519, Note_on_c, 0, 52, 80
1, 91519, Note_on_c, 0, 52, 0
1, 91519, Note_on_c, 0, 52, 80
1, 91597, Note_on_c, 0, 52, 0
1, 91599, Note_on_c, 0, 51, 80
1, 91599, Note_on_c, 0, 51, 0
1, 91599, Note_on_c, 0, 51, 80
1, 91599, Note_on_c, 0, 51, 0
1, 91599, Note_on_c, 0, 51, 80
1, 91677, Note_on_c, 0, 51, 0
1, 91680, Note_on_c, 0, 50, 80
1, 91680, Note_on_c, 0, 50, 0
1, 92160, Note_on_c, 0, 58, 96
1, 93599, Note_on_c, 0, 58, 0
1, 93600, Note_on_c, 0, 65, 96
1, 94055, Note_on_c, 0, 65, 0
1, 94080, Note_on_c, 0, 64, 96
1, 95039, Note_on_c, 0, 64, 0
1, 95040, Note_on_c, 0, 62, 96
1, 95951, Note_on_c, 0, 62, 0
1, 96000, Note_on_c, 0, 65, 96
1, 97823, Note_on_c, 0, 65, 0
1, 97920, Note_on_c, 0, 79, 96
1, 98033, Note_on_c, 0, 79, 0
1, 98040, Note_on_c, 0, 86, 96
1, 98153, Note_on_c, 0, 86, 0
1, 98160, Note_on_c, 0, 89, 96
1, 98273, Note_on_c, 0, 89, 0
1, 98280, Note_on_c, 0, 86, 96
1, 98393, Note_on_c, 0, 86, 0
1, 98400, Note_on_c, 0, 91, 96
1, 98519, Note_on_c, 0, 91, 0
1, 98640, Note_on_c, 0, 89, 96
1, 98759, Note_on_c, 0, 89, 0
1, 98880, Note_on_c, 0, 86, 96
1, 98993, Note_on_c, 0, 86, 0
1, 99000, Note_on_c, 0, 84, 96
1, 99113, Note_on_c, 0, 84, 0
1, 99240, Note_on_c, 0, 81, 96
1, 99467, Note_on_c, 0, 81, 0
1, 99480, Note_on_c, 0, 79, 96
1, 99599, Note_on_c, 0, 79, 0
1, 99600, Note_on_c, 0, 81, 96
1, 99719, Note_on_c, 0, 81, 0
1, 99720, Note_on_c, 0, 84, 96
1, 99833, Note_on_c, 0, 84, 0
1, 99840, Note_on_c, 0, 58, 96
1, 101279, Note_on_c, 0, 58, 0
1, 101280, Note_on_c, 0, 65, 96
1, 101735, Note_on_c, 0, 65, 0
1, 101760, Note_on_c, 0, 64, 96
1, 102719, Note_on_c, 0, 64, 0
1, 102720, Note_on_c, 0, 62, 96
1, 103631, Note_on_c, 0, 62, 0
1, 103680, Note_on_c, 0, 62, 96
1, 103907, Note_on_c, 0, 62, 0
1, 103920, Note_on_c, 0, 65, 96
1, 103920, Note_on_c, 0, 77, 96
1, 104039, Note_on_c, 0, 65, 0
1, 104039, Note_on_c, 0, 77, 0
1, 104160, Note_on_c, 0, 64, 96
1, 104160, Note_on_c, 0, 76, 96
1, 104279, Note_on_c, 0, 64, 0
1, 104279, Note_on_c, 0, 76, 0
1, 104520, Note_on_c, 0, 60, 96
1, 104520, Note_on_c, 0, 72, 96
1, 104633, Note_on_c, 0, 60, 0
1, 104633, Note_on_c, 0, 72, 0
1, 104760, Note_on_c, 0, 64, 96
1, 104760, Note_on_c, 0, 76, 96
1, 104873, Note_on_c, 0, 64, 0
1, 104873, Note_on_c, 0, 76, 0
1, 105000, Note_on_c, 0, 62, 96
1, 105000, Note_on_c, 0, 74, 96
1, 105227, Note_on_c, 0, 62, 0
1, 105227, Note_on_c, 0, 74, 0
1, 105240, Note_on_c, 0, 67, 96
1, 105353, Note_on_c, 0, 67, 0
1, 105360, Note_on_c, 0, 69, 96
1, 105473, Note_on_c, 0, 69, 0
1, 105480, Note_on_c, 0, 72, 96
1, 105593, Note_on_c, 0, 72, 0
1, 105840, Note_on_c, 0, 65, 96
1, 105840, Note_on_c, 0, 77, 96
1, 105959, Note_on_c, 0, 65, 0
1, 105959, Note_on_c, 0, 77, 0
1, 106080, Note_on_c, 0, 64, 96
1, 106080, Note_on_c, 0, 76, 96
1, 106199, Note_on_c, 0, 64, 0
1, 106199, Note_on_c, 0, 76, 0
1, 106440, Note_on_c, 0, 60, 96
1, 106440, Note_on_c, 0, 72, 96
1, 106553, Note_on_c, 0, 60, 0
1, 106553, Note_on_c, 0, 72, 0
1, 106680, Note_on_c, 0, 64, 96
1, 106680, Note_on_c, 0, 76, 96
1, 106793, Note_on_c, 0, 64, 0
1, 106793, Note_on_c, 0, 76, 0
1, 106920, Note_on_c, 0, 62, 96
1, 106920, Note_on_c, 0, 74, 96
1, 107147, Note_on_c, 0, 62, 0
1, 107147, Note_on_c, 0, 74, 0
1, 107160, Note_on_c, 0, 67, 96
1, 107273, Note_on_c, 0, 67, 0
1, 107280, Note_on_c, 0, 69, 96
1, 107393, Note_on_c, 0, 69, 0
1, 107400, Note_on_c, 0, 72, 96
1, 107513, Note_on_c, 0, 72, 0
1, 134400, Note_on_c, 0, 62, 96
1, 134513, Note_on_c, 0, 62, 0
1, 134520, Note_on_c, 0, 62, 96
1, 134633, Note_on_c, 0, 62, 0
1, 134640, Note_on_c, 0, 74, 96
1, 134759, Note_on_c, 0, 74, 0
1, 134880, Note_on_c, 0, 69, 96
1, 134999, Note_on_c, 0, 69, 0
1, 135240, Note_on_c, 0, 68, 96
1, 135353, Note_on_c, 0, 68, 0
1, 135480, Note_on_c, 0, 67, 96
1, 135593, Note_on_c, 0, 67, 0
1, 135720, Note_on_c, 0, 65, 96
1, 135947, Note_on_c, 0, 65, 0
1, 135960, Note_on_c, 0, 62, 96
1, 136073, Note_on_c, 0, 62, 0
1, 136080, Note_on_c, 0, 65, 96
1, 136193, Note_on_c, 0, 65, 0
1, 136200, Note_on_c, 0, 67, 96
1, 136313, Note_on_c, 0, 67, 0
1, 136320, Note_on_c, 0, 62, 96
1, 136433, Note_on_c, 0, 62, 0
1, 136440, Note_on_c, 0, 62, 96
1, 136553, Note_on_c, 0, 62, 0
1, 136560, Note_on_c, 0, 74, 96
1, 136679, Note_on_c, 0, 74, 0
1, 136800, Note_on_c, 0, 69, 96
1, 136919, Note_on_c, 0, 69, 0
1, 137160, Note_on_c, 0, 68, 96
1, 137273, Note_on_c, 0, 68, 0
1, 137400, Note_on_c, 0, 67, 96
1, 137513, Note_on_c, 0, 67, 0
1, 137640, Note_on_c, 0, 65, 96
1, 137867, Note_on_c, 0, 65, 0
1, 137880, Note_on_c, 0, 62, 96
1, 137993, Note_on_c, 0, 62, 0
1, 138000, Note_on_c, 0, 65, 96
1, 138113, Note_on_c, 0, 65, 0
1, 138120, Note_on_c, 0, 67, 96
1, 138233, Note_on_c, 0, 67, 0
1, 138240, Note_on_c, 0, 58, 96
1, 138353, Note_on_c, 0, 58, 0
1, 138360, Note_on_c, 0, 58, 96
1, 138473, Note_on_c, 0, 58, 0
1, 138480, Note_on_c, 0, 74, 96
1, 138599, Note_on_c, 0, 74, 0
1, 138720, Note_on_c, 0, 69, 96
1, 138839, Note_on_c, 0, 69, 0
1, 139080, Note_on_c, 0, 68, 96
1, 139193, Note_on_c, 0, 68, 0
1, 139320, Note_on_c, 0, 67, 96
1, 139433, Note_on_c, 0, 67, 0
1, 139560, Note_on_c, 0, 65, 96
1, 139787, Note_on_c, 0, 65, 0
1, 139800, Note_on_c, 0, 62, 96
1, 139913, Note_on_c, 0, 62, 0
1, 139920, Note_on_c, 0, 65, 96
1, 140033, Note_on_c, 0, 65, 0
1, 140040, Note_on_c, 0, 67, 96
1, 140153, Note_on_c, 0, 67, 0
1, 140160, Note_on_c, 0, 60, 96
1, 140273, Note_on_c, 0, 60, 0
1, 140280, Note_on_c, 0, 60, 96
1, 140393, Note_on_c, 0, 60, 0
1, 140400, Note_on_c, 0, 74, 96
1, 140519, Note_on_c, 0, 74, 0
1, 140640, Note_on_c, 0, 69, 96
1, 140759, Note_on_c, 0, 69, 0
1, 141000, Note_on_c, 0, 68, 96
1, 141113, Note_on_c, 0, 68, 0
1, 141240, Note_on_c, 0, 67, 96
1, 141353, Note_on_c, 0, 67, 0
1, 141480, Note_on_c, 0, 65, 96
1, 141707, Note_on_c, 0, 65, 0
1, 141720, Note_on_c, 0, 62, 96
1, 141833, Note_on_c, 0, 62, 0
1, 141840, Note_on_c, 0, 65, 96
1, 141953, Note_on_c, 0, 65, 0
1, 141960, Note_on_c, 0, 67, 96
1, 142073, Note_on_c, 0, 67, 0
1, 142080, Note_on_c, 0, 62, 96
1, 142193, Note_on_c, 0, 62, 0
1, 142200, Note_on_c, 0, 62, 96
1, 142313, Note_on_c, 0, 62, 0
1, 142320, Note_on_c, 0, 74, 96
1, 142439, Note_on_c, 0, 74, 0
1, 142560, Note_on_c, 0, 69, 96
1, 142679, Note_on_c, 0, 69, 0
1, 142920, Note_on_c, 0, 68, 96
1, 143033, Note_on_c, 0, 68, 0
1, 143160, Note_on_c, 0, 67, 96
1, 143273, Note_on_c, 0, 67, 0
1, 143400, Note_on_c, 0, 65, 96
1, 143627, Note_on_c, 0, 65, 0
1, 143640, Note_on_c, 0, 62, 96
1, 143753, Note_on_c, 0, 62, 0
1, 143760, Note_on_c, 0, 65, 96
1, 143873, Note_on_c, 0, 65, 0
1, 143880, Note_on_c, 0, 67, 96
1, 143993, Note_on_c, 0, 67, 0
1, 144000, Note_on_c, 0, 62, 96
1, 144113, Note_on_c, 0, 62, 0
1, 144120, Note_on_c, 0, 62, 96
1, 144233, Note_on_c, 0, 62, 0
1, 144240, Note_on_c, 0, 74, 96
1, 144359, Note_on_c, 0, 74, 0
1, 144480, Note_on_c, 0, 69, 96
1, 144599, Note_on_c, 0, 69, 0
1, 144840, Note_on_c, 0, 68, 96
1, 144953, Note_on_c, 0, 68, 0
1, 145080, Note_on_c, 0, 67, 96
1, 145193, Note_on_c, 0, 67, 0
1, 145320, Note_on_c, 0, 65, 96
1, 145547, Note_on_c, 0, 65, 0
1, 145560, Note_on_c, 0, 62, 96
1, 145673, Note_on_c, 0, 62, 0
1, 145680, Note_on_c, 0, 65, 96
1, 145793, Note_on_c, 0, 65, 0
1, 145800, Note_on_c, 0, 67, 96
1, 145913, Note_on_c, 0, 67, 0
1, 145920, Note_on_c, 0, 58, 96
1, 146033, Note_on_c, 0, 58, 0
1, 146040, Note_on_c, 0, 58, 96
1, 146153, Note_on_c, 0, 58, 0
1, 146160, Note_on_c, 0, 74, 96
1, 146279, Note_on_c, 0, 74, 0
1, 146400, Note_on_c, 0, 69, 96
1, 146519, Note_on_c, 0, 69, 0
1, 146760, Note_on_c, 0, 68, 96
1, 146873, Note_on_c, 0, 68, 0
1, 147000, Note_on_c, 0, 67, 96
1, 147113, Note_on_c, 0, 67, 0
1, 147240, Note_on_c, 0, 65, 96
1, 147467, Note_on_c, 0, 65, 0
1, 147480, Note_on_c, 0, 62, 96
1, 147593, Note_on_c, 0, 62, 0
1, 147600, Note_on_c, 0, 65, 96
1, 147713, Note_on_c, 0, 65, 0
1, 147720, Note_on_c, 0, 67, 96
1, 147833, Note_on_c, 0, 67, 0
1, 147840, Note_on_c, 0, 60, 96
1, 147953, Note_on_c, 0, 60, 0
1, 147960, Note_on_c, 0, 60, 96
1, 148073, Note_on_c, 0, 60, 0
1, 148080, Note_on_c, 0, 74, 96
1, 148199, Note_on_c, 0, 74, 0
1, 148320, Note_on_c, 0, 69, 96
1, 148439, Note_on_c, 0, 69, 0
1, 148680, Note_on_c, 0, 68, 96
1, 148793, Note_on_c, 0, 68, 0
1, 148920, Note_on_c, 0, 67, 96
1, 149033, Note_on_c, 0, 67, 0
1, 149160, Note_on_c, 0, 65, 96
1, 149387, Note_on_c, 0, 65, 0
1, 149400, Note_on_c, 0, 62, 96
1, 149513, Note_on_c, 0, 62, 0
1, 149520, Note_on_c, 0, 65, 96
1, 149633, Note_on_c, 0, 65, 0
1, 149640, Note_on_c, 0, 67, 96
1, 149753, Note_on_c, 0, 67, 0
1, 149754, End_track
2, 0, Start_track
"2, 0, Key_signature, -1, ""major"""
2, 0, MIDI_port, 0
2, 7680, Note_on_c, 0, 50, 96
2, 7799, Note_on_c, 0, 50, 0
2, 7920, Note_on_c, 0, 50, 96
2, 8039, Note_on_c, 0, 50, 0
2, 8160, Note_on_c, 0, 50, 96
2, 8273, Note_on_c, 0, 50, 0
2, 8280, Note_on_c, 0, 50, 96
2, 8393, Note_on_c, 0, 50, 0
2, 8520, Note_on_c, 0, 50, 96
2, 8633, Note_on_c, 0, 50, 0
2, 8760, Note_on_c, 0, 50, 96
2, 8873, Note_on_c, 0, 50, 0
2, 9000, Note_on_c, 0, 50, 96
2, 9113, Note_on_c, 0, 50, 0
2, 9120, Note_on_c, 0, 50, 96
2, 9233, Note_on_c, 0, 50, 0
2, 9240, Note_on_c, 0, 50, 96
2, 9353, Note_on_c, 0, 50, 0
2, 9360, Note_on_c, 0, 50, 96
2, 9587, Note_on_c, 0, 50, 0
2, 9600, Note_on_c, 0, 48, 96
2, 9719, Note_on_c, 0, 48, 0
2, 9840, Note_on_c, 0, 48, 96
2, 9840, Note_on_c, 0, 60, 96
2, 9959, Note_on_c, 0, 48, 0
2, 10080, Note_on_c, 0, 48, 96
2, 10193, Note_on_c, 0, 48, 0
2, 10200, Note_on_c, 0, 48, 96
2, 10313, Note_on_c, 0, 48, 0
2, 10440, Note_on_c, 0, 48, 96
2, 10553, Note_on_c, 0, 48, 0
2, 10680, Note_on_c, 0, 48, 96
2, 10793, Note_on_c, 0, 48, 0
2, 10920, Note_on_c, 0, 48, 96
2, 11033, Note_on_c, 0, 48, 0
2, 11040, Note_on_c, 0, 48, 96
2, 11153, Note_on_c, 0, 48, 0
2, 11160, Note_on_c, 0, 48, 96
2, 11273, Note_on_c, 0, 48, 0
2, 11280, Note_on_c, 0, 48, 96
2, 11435, Note_on_c, 0, 60, 0
2, 11507, Note_on_c, 0, 48, 0
2, 11520, Note_on_c, 0, 47, 96
2, 11639, Note_on_c, 0, 47, 0
2, 11760, Note_on_c, 0, 47, 96
2, 11760, Note_on_c, 0, 59, 96
2, 11879, Note_on_c, 0, 47, 0
2, 12000, Note_on_c, 0, 47, 96
2, 12113, Note_on_c, 0, 47, 0
2, 12120, Note_on_c, 0, 47, 96
2, 12233, Note_on_c, 0, 47, 0
2, 12360, Note_on_c, 0, 47, 96
2, 12473, Note_on_c, 0, 47, 0
2, 12600, Note_on_c, 0, 47, 96
2, 12713, Note_on_c, 0, 47, 0
2, 12840, Note_on_c, 0, 47, 96
2, 12953, Note_on_c, 0, 47, 0
2, 12960, Note_on_c, 0, 47, 96
2, 13073, Note_on_c, 0, 47, 0
2, 13080, Note_on_c, 0, 47, 96
2, 13193, Note_on_c, 0, 47, 0
2, 13200, Note_on_c, 0, 47, 96
2, 13355, Note_on_c, 0, 59, 0
2, 13427, Note_on_c, 0, 47, 0
2, 13440, Note_on_c, 0, 46, 96
2, 13559, Note_on_c, 0, 46, 0
2, 13680, Note_on_c, 0, 46, 96
2, 13680, Note_on_c, 0, 58, 96
2, 13799, Note_on_c, 0, 46, 0
2, 13920, Note_on_c, 0, 46, 96
2, 14033, Note_on_c, 0, 46, 0
2, 14040, Note_on_c, 0, 46, 96
2, 14153, Note_on_c, 0, 46, 0
2, 14249, Note_on_c, 0, 58, 0
2, 14280, Note_on_c, 0, 48, 96
2, 14280, Note_on_c, 0, 60, 96
2, 14393, Note_on_c, 0, 48, 0
2, 14520, Note_on_c, 0, 48, 96
2, 14633, Note_on_c, 0, 48, 0
2, 14760, Note_on_c, 0, 48, 96
2, 14873, Note_on_c, 0, 48, 0
2, 14880, Note_on_c, 0, 48, 96
2, 14993, Note_on_c, 0, 48, 0
2, 15000, Note_on_c, 0, 48, 96
2, 15113, Note_on_c, 0, 48, 0
2, 15120, Note_on_c, 0, 48, 96
2, 15305, Note_on_c, 0, 60, 0
2, 15347, Note_on_c, 0, 48, 0
2, 15360, Note_on_c, 0, 38, 112
2, 15360, Note_on_c, 0, 50, 112
2, 15479, Note_on_c, 0, 38, 0
2, 15479, Note_on_c, 0, 50, 0
2, 15600, Note_on_c, 0, 38, 112
2, 15600, Note_on_c, 0, 50, 112
2, 15719, Note_on_c, 0, 38, 0
2, 15719, Note_on_c, 0, 50, 0
2, 15840, Note_on_c, 0, 38, 112
2, 15840, Note_on_c, 0, 50, 112
2, 15953, Note_on_c, 0, 38, 0
2, 15953, Note_on_c, 0, 50, 0
2, 15960, Note_on_c, 0, 38, 112
2, 15960, Note_on_c, 0, 50, 112
2, 16073, Note_on_c, 0, 38, 0
2, 16073, Note_on_c, 0, 50, 0
2, 16200, Note_on_c, 0, 38, 112
2, 16200, Note_on_c, 0, 50, 112
2, 16313, Note_on_c, 0, 38, 0
2, 16313, Note_on_c, 0, 50, 0
2, 16440, Note_on_c, 0, 38, 112
2, 16440, Note_on_c, 0, 50, 112
2, 16553, Note_on_c, 0, 38, 0
2, 16553, Note_on_c, 0, 50, 0
2, 16680, Note_on_c, 0, 38, 112
2, 16680, Note_on_c, 0, 50, 112
2, 16793, Note_on_c, 0, 38, 0
2, 16793, Note_on_c, 0, 50, 0
2, 16800, Note_on_c, 0, 38, 112
2, 16800, Note_on_c, 0, 50, 112
2, 16913, Note_on_c, 0, 38, 0
2, 16913, Note_on_c, 0, 50, 0
2, 16920, Note_on_c, 0, 38, 112
2, 16920, Note_on_c, 0, 50, 112
2, 17033, Note_on_c, 0, 38, 0
2, 17033, Note_on_c, 0, 50, 0
2, 17040, Note_on_c, 0, 38, 112
2, 17040, Note_on_c, 0, 50, 112
2, 17153, Note_on_c, 0, 38, 0
2, 17153, Note_on_c, 0, 50, 0
2, 17160, Note_on_c, 0, 50, 112
2, 17273, Note_on_c, 0, 50, 0
2, 17280, Note_on_c, 0, 36, 112
2, 17280, Note_on_c, 0, 48, 112
2, 17399, Note_on_c, 0, 36, 0
2, 17399, Note_on_c, 0, 48, 0
2, 17520, Note_on_c, 0, 36, 112
2, 17520, Note_on_c, 0, 48, 112
2, 17639, Note_on_c, 0, 36, 0
2, 17639, Note_on_c, 0, 48, 0
2, 17760, Note_on_c, 0, 36, 112
2, 17760, Note_on_c, 0, 48, 112
2, 17873, Note_on_c, 0, 36, 0
2, 17873, Note_on_c, 0, 48, 0
2, 17880, Note_on_c, 0, 36, 112
2, 17880, Note_on_c, 0, 48, 112
2, 17993, Note_on_c, 0, 36, 0
2, 17993, Note_on_c, 0, 48, 0
2, 18120, Note_on_c, 0, 36, 112
2, 18120, Note_on_c, 0, 48, 112
2, 18233, Note_on_c, 0, 36, 0
2, 18233, Note_on_c, 0, 48, 0
2, 18360, Note_on_c, 0, 36, 112
2, 18360, Note_on_c, 0, 48, 112
2, 18473, Note_on_c, 0, 36, 0
2, 18473, Note_on_c, 0, 48, 0
2, 18600, Note_on_c, 0, 36, 112
2, 18600, Note_on_c, 0, 48, 112
2, 18713, Note_on_c, 0, 36, 0
2, 18713, Note_on_c, 0, 48, 0
2, 18720, Note_on_c, 0, 36, 112
2, 18720, Note_on_c, 0, 48, 112
2, 18833, Note_on_c, 0, 36, 0
2, 18833, Note_on_c, 0, 48, 0
2, 18840, Note_on_c, 0, 36, 112
2, 18840, Note_on_c, 0, 48, 112
2, 18953, Note_on_c, 0, 36, 0
2, 18953, Note_on_c, 0, 48, 0
2, 18960, Note_on_c, 0, 36, 112
2, 18960, Note_on_c, 0, 48, 112
2, 19187, Note_on_c, 0, 36, 0
2, 19187, Note_on_c, 0, 48, 0
2, 19200, Note_on_c, 0, 35, 112
2, 19200, Note_on_c, 0, 47, 112
2, 19319, Note_on_c, 0, 35, 0
2, 19319, Note_on_c, 0, 47, 0
2, 19440, Note_on_c, 0, 35, 112
2, 19440, Note_on_c, 0, 47, 112
2, 19559, Note_on_c, 0, 35, 0
2, 19559, Note_on_c, 0, 47, 0
2, 19680, Note_on_c, 0, 35, 112
2, 19680, Note_on_c, 0, 47, 112
2, 19793, Note_on_c, 0, 35, 0
2, 19793, Note_on_c, 0, 47, 0
2, 19800, Note_on_c, 0, 35, 112
2, 19800, Note_on_c, 0, 47, 112
2, 19913, Note_on_c, 0, 35, 0
2, 19913, Note_on_c, 0, 47, 0
2, 20040, Note_on_c, 0, 35, 112
2, 20040, Note_on_c, 0, 47, 112
2, 20153, Note_on_c, 0, 35, 0
2, 20153, Note_on_c, 0, 47, 0
2, 20280, Note_on_c, 0, 35, 112
2, 20280, Note_on_c, 0, 47, 112
2, 20393, Note_on_c, 0, 35, 0
2, 20393, Note_on_c, 0, 47, 0
2, 20520, Note_on_c, 0, 35, 112
2, 20520, Note_on_c, 0, 47, 112
2, 20633, Note_on_c, 0, 35, 0
2, 20633, Note_on_c, 0, 47, 0
2, 20640, Note_on_c, 0, 35, 112
2, 20640, Note_on_c, 0, 47, 112
2, 20753, Note_on_c, 0, 35, 0
2, 20753, Note_on_c, 0, 47, 0
2, 20760, Note_on_c, 0, 35, 112
2, 20760, Note_on_c, 0, 47, 112
2, 20873, Note_on_c, 0, 35, 0
2, 20873, Note_on_c, 0, 47, 0
2, 20880, Note_on_c, 0, 35, 112
2, 20880, Note_on_c, 0, 47, 112
2, 21107, Note_on_c, 0, 35, 0
2, 21107, Note_on_c, 0, 47, 0
2, 21120, Note_on_c, 0, 34, 112
2, 21120, Note_on_c, 0, 46, 112
2, 21239, Note_on_c, 0, 34, 0
2, 21239, Note_on_c, 0, 46, 0
2, 21360, Note_on_c, 0, 34, 112
2, 21360, Note_on_c, 0, 46, 112
2, 21479, Note_on_c, 0, 34, 0
2, 21479, Note_on_c, 0, 46, 0
2, 21600, Note_on_c, 0, 34, 112
2, 21600, Note_on_c, 0, 46, 112
2, 21713, Note_on_c, 0, 34, 0
2, 21713, Note_on_c, 0, 46, 0
2, 21720, Note_on_c, 0, 34, 112
2, 21720, Note_on_c, 0, 46, 112
2, 21833, Note_on_c, 0, 34, 0
2, 21833, Note_on_c, 0, 46, 0
2, 21960, Note_on_c, 0, 36, 112
2, 21960, Note_on_c, 0, 48, 112
2, 22073, Note_on_c, 0, 36, 0
2, 22073, Note_on_c, 0, 48, 0
2, 22200, Note_on_c, 0, 36, 112
2, 22200, Note_on_c, 0, 48, 112
2, 22313, Note_on_c, 0, 36, 0
2, 22313, Note_on_c, 0, 48, 0
2, 22440, Note_on_c, 0, 36, 112
2, 22440, Note_on_c, 0, 48, 112
2, 22553, Note_on_c, 0, 36, 0
2, 22553, Note_on_c, 0, 48, 0
2, 22560, Note_on_c, 0, 36, 112
2, 22560, Note_on_c, 0, 48, 112
2, 22673, Note_on_c, 0, 36, 0
2, 22673, Note_on_c, 0, 48, 0
2, 22680, Note_on_c, 0, 36, 112
2, 22680, Note_on_c, 0, 48, 112
2, 22793, Note_on_c, 0, 36, 0
2, 22793, Note_on_c, 0, 48, 0
2, 22800, Note_on_c, 0, 36, 112
2, 22800, Note_on_c, 0, 48, 112
2, 23027, Note_on_c, 0, 36, 0
2, 23027, Note_on_c, 0, 48, 0
2, 23040, Note_on_c, 0, 38, 112
2, 23040, Note_on_c, 0, 50, 112
2, 23159, Note_on_c, 0, 38, 0
2, 23159, Note_on_c, 0, 50, 0
2, 23280, Note_on_c, 0, 38, 112
2, 23280, Note_on_c, 0, 50, 112
2, 23399, Note_on_c, 0, 38, 0
2, 23399, Note_on_c, 0, 50, 0
2, 23520, Note_on_c, 0, 38, 112
2, 23520, Note_on_c, 0, 50, 112
2, 23633, Note_on_c, 0, 38, 0
2, 23633, Note_on_c, 0, 50, 0
2, 23640, Note_on_c, 0, 38, 112
2, 23640, Note_on_c, 0, 50, 112
2, 23753, Note_on_c, 0, 38, 0
2, 23753, Note_on_c, 0, 50, 0
2, 23880, Note_on_c, 0, 38, 112
2, 23880, Note_on_c, 0, 50, 112
2, 23993, Note_on_c, 0, 38, 0
2, 23993, Note_on_c, 0, 50, 0
2, 24120, Note_on_c, 0, 38, 112
2, 24120, Note_on_c, 0, 50, 112
2, 24233, Note_on_c, 0, 38, 0
2, 24233, Note_on_c, 0, 50, 0
2, 24360, Note_on_c, 0, 38, 112
2, 24360, Note_on_c, 0, 50, 112
2, 24473, Note_on_c, 0, 38, 0
2, 24473, Note_on_c, 0, 50, 0
2, 24480, Note_on_c, 0, 38, 112
2, 24480, Note_on_c, 0, 50, 112
2, 24593, Note_on_c, 0, 38, 0
2, 24593, Note_on_c, 0, 50, 0
2, 24600, Note_on_c, 0, 38, 112
2, 24600, Note_on_c, 0, 50, 112
2, 24713, Note_on_c, 0, 38, 0
2, 24713, Note_on_c, 0, 50, 0
2, 24720, Note_on_c, 0, 38, 112
2, 24720, Note_on_c, 0, 50, 112
2, 24833, Note_on_c, 0, 38, 0
2, 24833, Note_on_c, 0, 50, 0
2, 24840, Note_on_c, 0, 50, 112
2, 24953, Note_on_c, 0, 50, 0
2, 24960, Note_on_c, 0, 36, 112
2, 24960, Note_on_c, 0, 48, 112
2, 25079, Note_on_c, 0, 36, 0
2, 25079, Note_on_c, 0, 48, 0
2, 25200, Note_on_c, 0, 36, 112
2, 25200, Note_on_c, 0, 48, 112
2, 25319, Note_on_c, 0, 36, 0
2, 25319, Note_on_c, 0, 48, 0
2, 25440, Note_on_c, 0, 36, 112
2, 25440, Note_on_c, 0, 48, 112
2, 25553, Note_on_c, 0, 36, 0
2, 25553, Note_on_c, 0, 48, 0
2, 25560, Note_on_c, 0, 36, 112
2, 25560, Note_on_c, 0, 48, 112
2, 25673, Note_on_c, 0, 36, 0
2, 25673, Note_on_c, 0, 48, 0
2, 25800, Note_on_c, 0, 36, 112
2, 25800, Note_on_c, 0, 48, 112
2, 25913, Note_on_c, 0, 36, 0
2, 25913, Note_on_c, 0, 48, 0
2, 26040, Note_on_c, 0, 36, 112
2, 26040, Note_on_c, 0, 48, 112
2, 26153, Note_on_c, 0, 36, 0
2, 26153, Note_on_c, 0, 48, 0
2, 26280, Note_on_c, 0, 36, 112
2, 26280, Note_on_c, 0, 48, 112
2, 26393, Note_on_c, 0, 36, 0
2, 26393, Note_on_c, 0, 48, 0
2, 26400, Note_on_c, 0, 36, 112
2, 26400, Note_on_c, 0, 48, 112
2, 26513, Note_on_c, 0, 36, 0
2, 26513, Note_on_c, 0, 48, 0
2, 26520, Note_on_c, 0, 36, 112
2, 26520, Note_on_c, 0, 48, 112
2, 26633, Note_on_c, 0, 36, 0
2, 26633, Note_on_c, 0, 48, 0
2, 26640, Note_on_c, 0, 36, 112
2, 26640, Note_on_c, 0, 48, 112
2, 26867, Note_on_c, 0, 36, 0
2, 26867, Note_on_c, 0, 48, 0
2, 26880, Note_on_c, 0, 35, 112
2, 26880, Note_on_c, 0, 47, 112
2, 26999, Note_on_c, 0, 35, 0
2, 26999, Note_on_c, 0, 47, 0
2, 27120, Note_on_c, 0, 35, 112
2, 27120, Note_on_c, 0, 47, 112
2, 27239, Note_on_c, 0, 35, 0
2, 27239, Note_on_c, 0, 47, 0
2, 27360, Note_on_c, 0, 35, 112
2, 27360, Note_on_c, 0, 47, 112
2, 27473, Note_on_c, 0, 35, 0
2, 27473, Note_on_c, 0, 47, 0
2, 27480, Note_on_c, 0, 35, 112
2, 27480, Note_on_c, 0, 47, 112
2, 27593, Note_on_c, 0, 35, 0
2, 27593, Note_on_c, 0, 47, 0
2, 27720, Note_on_c, 0, 35, 112
2, 27720, Note_on_c, 0, 47, 112
2, 27833, Note_on_c, 0, 35, 0
2, 27833, Note_on_c, 0, 47, 0
2, 27960, Note_on_c, 0, 35, 112
2, 27960, Note_on_c, 0, 47, 112
2, 28073, Note_on_c, 0, 35, 0
2, 28073, Note_on_c, 0, 47, 0
2, 28200, Note_on_c, 0, 35, 112
2, 28200, Note_on_c, 0, 47, 112
2, 28313, Note_on_c, 0, 35, 0
2, 28313, Note_on_c, 0, 47, 0
2, 28320, Note_on_c, 0, 35, 112
2, 28320, Note_on_c, 0, 47, 112
2, 28433, Note_on_c, 0, 35, 0
2, 28433, Note_on_c, 0, 47, 0
2, 28440, Note_on_c, 0, 35, 112
2, 28440, Note_on_c, 0, 47, 112
2, 28553, Note_on_c, 0, 35, 0
2, 28553, Note_on_c, 0, 47, 0
2, 28560, Note_on_c, 0, 35, 112
2, 28560, Note_on_c, 0, 47, 112
2, 28787, Note_on_c, 0, 35, 0
2, 28787, Note_on_c, 0, 47, 0
2, 28800, Note_on_c, 0, 34, 112
2, 28800, Note_on_c, 0, 46, 112
2, 28919, Note_on_c, 0, 34, 0
2, 28919, Note_on_c, 0, 46, 0
2, 29040, Note_on_c, 0, 34, 112
2, 29040, Note_on_c, 0, 46, 112
2, 29159, Note_on_c, 0, 34, 0
2, 29159, Note_on_c, 0, 46, 0
2, 29280, Note_on_c, 0, 34, 112
2, 29280, Note_on_c, 0, 46, 112
2, 29393, Note_on_c, 0, 34, 0
2, 29393, Note_on_c, 0, 46, 0
2, 29400, Note_on_c, 0, 34, 112
2, 29400, Note_on_c, 0, 46, 112
2, 29513, Note_on_c, 0, 34, 0
2, 29513, Note_on_c, 0, 46, 0
2, 29640, Note_on_c, 0, 36, 112
2, 29640, Note_on_c, 0, 48, 112
2, 29753, Note_on_c, 0, 36, 0
2, 29753, Note_on_c, 0, 48, 0
2, 29880, Note_on_c, 0, 36, 112
2, 29880, Note_on_c, 0, 48, 112
2, 29993, Note_on_c, 0, 36, 0
2, 29993, Note_on_c, 0, 48, 0
2, 30120, Note_on_c, 0, 36, 112
2, 30120, Note_on_c, 0, 48, 112
2, 30233, Note_on_c, 0, 36, 0
2, 30233, Note_on_c, 0, 48, 0
2, 30240, Note_on_c, 0, 36, 112
2, 30240, Note_on_c, 0, 48, 112
2, 30353, Note_on_c, 0, 36, 0
2, 30353, Note_on_c, 0, 48, 0
2, 30360, Note_on_c, 0, 36, 112
2, 30360, Note_on_c, 0, 48, 112
2, 30473, Note_on_c, 0, 36, 0
2, 30473, Note_on_c, 0, 48, 0
2, 30480, Note_on_c, 0, 36, 112
2, 30480, Note_on_c, 0, 48, 112
2, 30707, Note_on_c, 0, 36, 0
2, 30707, Note_on_c, 0, 48, 0
2, 30720, Note_on_c, 0, 50, 96
2, 30839, Note_on_c, 0, 50, 0
2, 30960, Note_on_c, 0, 50, 96
2, 31079, Note_on_c, 0, 50, 0
2, 31200, Note_on_c, 0, 50, 96
2, 31313, Note_on_c, 0, 50, 0
2, 31320, Note_on_c, 0, 50, 96
2, 31433, Note_on_c, 0, 50, 0
2, 31560, Note_on_c, 0, 50, 96
2, 31673, Note_on_c, 0, 50, 0
2, 31800, Note_on_c, 0, 50, 96
2, 31913, Note_on_c, 0, 50, 0
2, 32040, Note_on_c, 0, 50, 96
2, 32153, Note_on_c, 0, 50, 0
2, 32160, Note_on_c, 0, 50, 96
2, 32273, Note_on_c, 0, 50, 0
2, 32280, Note_on_c, 0, 50, 96
2, 32400, Note_on_c, 0, 62, 96
2, 32621, Note_on_c, 0, 50, 0
2, 32627, Note_on_c, 0, 62, 0
2, 32640, Note_on_c, 0, 48, 96
2, 32759, Note_on_c, 0, 48, 0
2, 32880, Note_on_c, 0, 48, 96
2, 32999, Note_on_c, 0, 48, 0
2, 33120, Note_on_c, 0, 48, 96
2, 33233, Note_on_c, 0, 48, 0
2, 33240, Note_on_c, 0, 48, 96
2, 33353, Note_on_c, 0, 48, 0
2, 33480, Note_on_c, 0, 48, 96
2, 33593, Note_on_c, 0, 48, 0
2, 33720, Note_on_c, 0, 48, 96
2, 33833, Note_on_c, 0, 48, 0
2, 33960, Note_on_c, 0, 48, 96
2, 34073, Note_on_c, 0, 48, 0
2, 34080, Note_on_c, 0, 48, 96
2, 34193, Note_on_c, 0, 48, 0
2, 34200, Note_on_c, 0, 48, 96
2, 34313, Note_on_c, 0, 48, 0
2, 34320, Note_on_c, 0, 60, 96
2, 34439, Note_on_c, 0, 60, 0
2, 34440, Note_on_c, 0, 48, 96
2, 34553, Note_on_c, 0, 48, 0
2, 34560, Note_on_c, 0, 47, 96
2, 34679, Note_on_c, 0, 47, 0
2, 34800, Note_on_c, 0, 47, 96
2, 34919, Note_on_c, 0, 47, 0
2, 35040, Note_on_c, 0, 47, 96
2, 35153, Note_on_c, 0, 47, 0
2, 35160, Note_on_c, 0, 47, 96
2, 35273, Note_on_c, 0, 47, 0
2, 35400, Note_on_c, 0, 47, 96
2, 35513, Note_on_c, 0, 47, 0
2, 35640, Note_on_c, 0, 47, 96
2, 35753, Note_on_c, 0, 47, 0
2, 35880, Note_on_c, 0, 47, 96
2, 35993, Note_on_c, 0, 47, 0
2, 36000, Note_on_c, 0, 47, 96
2, 36113, Note_on_c, 0, 47, 0
2, 36120, Note_on_c, 0, 47, 96
2, 36240, Note_on_c, 0, 59, 96
2, 36461, Note_on_c, 0, 47, 0
2, 36467, Note_on_c, 0, 59, 0
2, 36480, Note_on_c, 0, 46, 96
2, 36599, Note_on_c, 0, 46, 0
2, 36720, Note_on_c, 0, 46, 96
2, 36839, Note_on_c, 0, 46, 0
2, 36960, Note_on_c, 0, 46, 96
2, 37073, Note_on_c, 0, 46, 0
2, 37080, Note_on_c, 0, 46, 96
2, 37193, Note_on_c, 0, 46, 0
2, 37320, Note_on_c, 0, 48, 96
2, 37433, Note_on_c, 0, 48, 0
2, 37560, Note_on_c, 0, 48, 96
2, 37673, Note_on_c, 0, 48, 0
2, 37800, Note_on_c, 0, 48, 96
2, 37913, Note_on_c, 0, 48, 0
2, 37920, Note_on_c, 0, 48, 96
2, 38033, Note_on_c, 0, 48, 0
2, 38040, Note_on_c, 0, 48, 96
2, 38153, Note_on_c, 0, 48, 0
2, 38160, Note_on_c, 0, 60, 96
2, 38279, Note_on_c, 0, 60, 0
2, 38280, Note_on_c, 0, 48, 96
2, 38393, Note_on_c, 0, 48, 0
2, 38400, Note_on_c, 0, 62, 96
2, 38400, Note_on_c, 0, 50, 96
2, 38513, Note_on_c, 0, 62, 0
2, 38520, Note_on_c, 0, 62, 96
2, 38633, Note_on_c, 0, 62, 0
2, 38640, Note_on_c, 0, 74, 96
2, 38759, Note_on_c, 0, 74, 0
2, 38880, Note_on_c, 0, 69, 96
2, 38999, Note_on_c, 0, 69, 0
2, 39240, Note_on_c, 0, 68, 96
2, 39353, Note_on_c, 0, 68, 0
2, 39480, Note_on_c, 0, 67, 96
2, 39593, Note_on_c, 0, 67, 0
2, 39720, Note_on_c, 0, 65, 96
2, 39947, Note_on_c, 0, 65, 0
2, 39960, Note_on_c, 0, 62, 96
2, 40073, Note_on_c, 0, 62, 0
2, 40080, Note_on_c, 0, 65, 96
2, 40193, Note_on_c, 0, 65, 0
2, 40200, Note_on_c, 0, 67, 96
2, 40223, Note_on_c, 0, 50, 0
2, 40313, Note_on_c, 0, 67, 0
2, 40320, Note_on_c, 0, 60, 96
2, 40320, Note_on_c, 0, 48, 96
2, 40433, Note_on_c, 0, 60, 0
2, 40440, Note_on_c, 0, 60, 96
2, 40553, Note_on_c, 0, 60, 0
2, 40560, Note_on_c, 0, 74, 96
2, 40679, Note_on_c, 0, 74, 0
2, 40800, Note_on_c, 0, 69, 96
2, 40919, Note_on_c, 0, 69, 0
2, 41160, Note_on_c, 0, 68, 96
2, 41273, Note_on_c, 0, 68, 0
2, 41400, Note_on_c, 0, 67, 96
2, 41513, Note_on_c, 0, 67, 0
2, 41640, Note_on_c, 0, 65, 96
2, 41867, Note_on_c, 0, 65, 0
2, 41880, Note_on_c, 0, 62, 96
2, 41993, Note_on_c, 0, 62, 0
2, 42000, Note_on_c, 0, 65, 96
2, 42113, Note_on_c, 0, 65, 0
2, 42120, Note_on_c, 0, 67, 96
2, 42143, Note_on_c, 0, 48, 0
2, 42233, Note_on_c, 0, 67, 0
2, 42240, Note_on_c, 0, 59, 96
2, 42240, Note_on_c, 0, 47, 96
2, 42353, Note_on_c, 0, 59, 0
2, 42360, Note_on_c, 0, 59, 96
2, 42473, Note_on_c, 0, 59, 0
2, 42480, Note_on_c, 0, 74, 96
2, 42599, Note_on_c, 0, 74, 0
2, 42720, Note_on_c, 0, 69, 96
2, 42839, Note_on_c, 0, 69, 0
2, 43080, Note_on_c, 0, 68, 96
2, 43193, Note_on_c, 0, 68, 0
2, 43320, Note_on_c, 0, 67, 96
2, 43433, Note_on_c, 0, 67, 0
2, 43560, Note_on_c, 0, 65, 96
2, 43787, Note_on_c, 0, 65, 0
2, 43800, Note_on_c, 0, 62, 96
2, 43913, Note_on_c, 0, 62, 0
2, 43920, Note_on_c, 0, 65, 96
2, 44033, Note_on_c, 0, 65, 0
2, 44040, Note_on_c, 0, 67, 96
2, 44063, Note_on_c, 0, 47, 0
2, 44153, Note_on_c, 0, 67, 0
2, 44160, Note_on_c, 0, 58, 96
2, 44160, Note_on_c, 0, 46, 96
2, 44273, Note_on_c, 0, 58, 0
2, 44280, Note_on_c, 0, 58, 96
2, 44393, Note_on_c, 0, 58, 0
2, 44400, Note_on_c, 0, 74, 96
2, 44519, Note_on_c, 0, 74, 0
2, 44640, Note_on_c, 0, 69, 96
2, 44759, Note_on_c, 0, 69, 0
2, 44957, Note_on_c, 0, 46, 0
2, 45000, Note_on_c, 0, 48, 96
2, 45240, Note_on_c, 0, 67, 96
2, 45353, Note_on_c, 0, 67, 0
2, 45480, Note_on_c, 0, 65, 96
2, 45707, Note_on_c, 0, 65, 0
2, 45720, Note_on_c, 0, 62, 96
2, 45833, Note_on_c, 0, 62, 0
2, 45840, Note_on_c, 0, 65, 96
2, 45953, Note_on_c, 0, 65, 0
2, 45960, Note_on_c, 0, 67, 96
2, 46025, Note_on_c, 0, 48, 0
2, 46073, Note_on_c, 0, 67, 0
2, 46080, Note_on_c, 0, 34, 96
2, 46080, Note_on_c, 0, 46, 96
2, 46319, Note_on_c, 0, 34, 0
2, 46319, Note_on_c, 0, 46, 0
2, 46320, Note_on_c, 0, 34, 96
2, 46320, Note_on_c, 0, 46, 96
2, 46439, Note_on_c, 0, 34, 0
2, 46439, Note_on_c, 0, 46, 0
2, 46560, Note_on_c, 0, 34, 96
2, 46560, Note_on_c, 0, 46, 96
2, 46673, Note_on_c, 0, 34, 0
2, 46673, Note_on_c, 0, 46, 0
2, 46680, Note_on_c, 0, 34, 96
2, 46680, Note_on_c, 0, 46, 96
2, 46793, Note_on_c, 0, 34, 0
2, 46793, Note_on_c, 0, 46, 0
2, 46920, Note_on_c, 0, 34, 96
2, 46920, Note_on_c, 0, 46, 96
2, 47033, Note_on_c, 0, 34, 0
2, 47033, Note_on_c, 0, 46, 0
2, 47160, Note_on_c, 0, 34, 96
2, 47160, Note_on_c, 0, 46, 96
2, 47273, Note_on_c, 0, 34, 0
2, 47273, Note_on_c, 0, 46, 0
2, 47400, Note_on_c, 0, 34, 96
2, 47400, Note_on_c, 0, 46, 96
2, 47513, Note_on_c, 0, 34, 0
2, 47513, Note_on_c, 0, 46, 0
2, 47520, Note_on_c, 0, 34, 96
2, 47520, Note_on_c, 0, 46, 96
2, 47633, Note_on_c, 0, 34, 0
2, 47633, Note_on_c, 0, 46, 0
2, 47640, Note_on_c, 0, 34, 96
2, 47640, Note_on_c, 0, 46, 96
2, 47753, Note_on_c, 0, 34, 0
2, 47753, Note_on_c, 0, 46, 0
2, 47760, Note_on_c, 0, 46, 96
2, 47987, Note_on_c, 0, 46, 0
2, 48000, Note_on_c, 0, 36, 96
2, 48000, Note_on_c, 0, 48, 96
2, 48239, Note_on_c, 0, 36, 0
2, 48239, Note_on_c, 0, 48, 0
2, 48240, Note_on_c, 0, 36, 96
2, 48240, Note_on_c, 0, 48, 96
2, 48359, Note_on_c, 0, 36, 0
2, 48359, Note_on_c, 0, 48, 0
2, 48480, Note_on_c, 0, 36, 96
2, 48480, Note_on_c, 0, 48, 96
2, 48593, Note_on_c, 0, 36, 0
2, 48593, Note_on_c, 0, 48, 0
2, 48600, Note_on_c, 0, 36, 96
2, 48600, Note_on_c, 0, 48, 96
2, 48713, Note_on_c, 0, 36, 0
2, 48713, Note_on_c, 0, 48, 0
2, 48840, Note_on_c, 0, 36, 96
2, 48840, Note_on_c, 0, 48, 96
2, 48953, Note_on_c, 0, 36, 0
2, 48953, Note_on_c, 0, 48, 0
2, 49080, Note_on_c, 0, 36, 96
2, 49080, Note_on_c, 0, 48, 96
2, 49193, Note_on_c, 0, 36, 0
2, 49193, Note_on_c, 0, 48, 0
2, 49320, Note_on_c, 0, 36, 96
2, 49320, Note_on_c, 0, 48, 96
2, 49433, Note_on_c, 0, 36, 0
2, 49433, Note_on_c, 0, 48, 0
2, 49440, Note_on_c, 0, 36, 96
2, 49440, Note_on_c, 0, 48, 96
2, 49553, Note_on_c, 0, 36, 0
2, 49553, Note_on_c, 0, 48, 0
2, 49560, Note_on_c, 0, 36, 96
2, 49560, Note_on_c, 0, 48, 96
2, 49673, Note_on_c, 0, 36, 0
2, 49673, Note_on_c, 0, 48, 0
2, 49680, Note_on_c, 0, 48, 96
2, 49907, Note_on_c, 0, 48, 0
2, 49920, Note_on_c, 0, 38, 96
2, 49920, Note_on_c, 0, 50, 96
2, 50159, Note_on_c, 0, 38, 0
2, 50159, Note_on_c, 0, 50, 0
2, 50160, Note_on_c, 0, 38, 96
2, 50160, Note_on_c, 0, 50, 96
2, 50279, Note_on_c, 0, 38, 0
2, 50279, Note_on_c, 0, 50, 0
2, 50400, Note_on_c, 0, 38, 96
2, 50400, Note_on_c, 0, 50, 96
2, 50513, Note_on_c, 0, 38, 0
2, 50513, Note_on_c, 0, 50, 0
2, 50520, Note_on_c, 0, 38, 96
2, 50520, Note_on_c, 0, 50, 96
2, 50633, Note_on_c, 0, 38, 0
2, 50633, Note_on_c, 0, 50, 0
2, 50760, Note_on_c, 0, 38, 96
2, 50760, Note_on_c, 0, 50, 96
2, 50873, Note_on_c, 0, 38, 0
2, 50873, Note_on_c, 0, 50, 0
2, 51000, Note_on_c, 0, 38, 96
2, 51000, Note_on_c, 0, 50, 96
2, 51113, Note_on_c, 0, 38, 0
2, 51113, Note_on_c, 0, 50, 0
2, 51240, Note_on_c, 0, 38, 96
2, 51240, Note_on_c, 0, 50, 96
2, 51353, Note_on_c, 0, 38, 0
2, 51353, Note_on_c, 0, 50, 0
2, 51360, Note_on_c, 0, 38, 96
2, 51360, Note_on_c, 0, 50, 96
2, 51473, Note_on_c, 0, 38, 0
2, 51473, Note_on_c, 0, 50, 0
2, 51480, Note_on_c, 0, 38, 96
2, 51480, Note_on_c, 0, 50, 96
2, 51593, Note_on_c, 0, 38, 0
2, 51593, Note_on_c, 0, 50, 0
2, 51600, Note_on_c, 0, 50, 96
2, 51827, Note_on_c, 0, 50, 0
2, 51840, Note_on_c, 0, 37, 96
2, 51840, Note_on_c, 0, 49, 96
2, 52079, Note_on_c, 0, 37, 0
2, 52079, Note_on_c, 0, 49, 0
2, 52080, Note_on_c, 0, 37, 96
2, 52080, Note_on_c, 0, 49, 96
2, 52199, Note_on_c, 0, 37, 0
2, 52199, Note_on_c, 0, 49, 0
2, 52320, Note_on_c, 0, 37, 96
2, 52320, Note_on_c, 0, 49, 96
2, 52433, Note_on_c, 0, 37, 0
2, 52433, Note_on_c, 0, 49, 0
2, 52440, Note_on_c, 0, 37, 96
2, 52440, Note_on_c, 0, 49, 96
2, 52553, Note_on_c, 0, 37, 0
2, 52553, Note_on_c, 0, 49, 0
2, 52680, Note_on_c, 0, 39, 96
2, 52680, Note_on_c, 0, 51, 96
2, 52907, Note_on_c, 0, 39, 0
2, 52907, Note_on_c, 0, 51, 0
2, 52920, Note_on_c, 0, 39, 96
2, 52920, Note_on_c, 0, 51, 96
2, 53033, Note_on_c, 0, 39, 0
2, 53033, Note_on_c, 0, 51, 0
2, 53160, Note_on_c, 0, 39, 96
2, 53160, Note_on_c, 0, 51, 96
2, 53273, Note_on_c, 0, 39, 0
2, 53273, Note_on_c, 0, 51, 0
2, 53280, Note_on_c, 0, 39, 96
2, 53280, Note_on_c, 0, 51, 96
2, 53393, Note_on_c, 0, 39, 0
2, 53393, Note_on_c, 0, 51, 0
2, 53400, Note_on_c, 0, 39, 96
2, 53400, Note_on_c, 0, 51, 96
2, 53513, Note_on_c, 0, 39, 0
2, 53513, Note_on_c, 0, 51, 0
2, 53520, Note_on_c, 0, 51, 96
2, 53747, Note_on_c, 0, 51, 0
2, 53760, Note_on_c, 0, 34, 96
2, 53760, Note_on_c, 0, 46, 96
2, 53999, Note_on_c, 0, 34, 0
2, 53999, Note_on_c, 0, 46, 0
2, 54000, Note_on_c, 0, 34, 96
2, 54000, Note_on_c, 0, 46, 96
2, 54119, Note_on_c, 0, 34, 0
2, 54119, Note_on_c, 0, 46, 0
2, 54240, Note_on_c, 0, 34, 96
2, 54240, Note_on_c, 0, 46, 96
2, 54353, Note_on_c, 0, 34, 0
2, 54353, Note_on_c, 0, 46, 0
2, 54360, Note_on_c, 0, 34, 96
2, 54360, Note_on_c, 0, 46, 96
2, 54473, Note_on_c, 0, 34, 0
2, 54473, Note_on_c, 0, 46, 0
2, 54600, Note_on_c, 0, 34, 96
2, 54600, Note_on_c, 0, 46, 96
2, 54713, Note_on_c, 0, 34, 0
2, 54713, Note_on_c, 0, 46, 0
2, 54840, Note_on_c, 0, 34, 96
2, 54840, Note_on_c, 0, 46, 96
2, 54953, Note_on_c, 0, 34, 0
2, 54953, Note_on_c, 0, 46, 0
2, 55080, Note_on_c, 0, 34, 96
2, 55080, Note_on_c, 0, 46, 96
2, 55193, Note_on_c, 0, 34, 0
2, 55193, Note_on_c, 0, 46, 0
2, 55200, Note_on_c, 0, 34, 96
2, 55200, Note_on_c, 0, 46, 96
2, 55313, Note_on_c, 0, 34, 0
2, 55313, Note_on_c, 0, 46, 0
2, 55320, Note_on_c, 0, 34, 96
2, 55320, Note_on_c, 0, 46, 96
2, 55433, Note_on_c, 0, 34, 0
2, 55433, Note_on_c, 0, 46, 0
2, 55440, Note_on_c, 0, 46, 96
2, 55667, Note_on_c, 0, 46, 0
2, 55680, Note_on_c, 0, 36, 96
2, 55680, Note_on_c, 0, 48, 96
2, 55919, Note_on_c, 0, 36, 0
2, 55919, Note_on_c, 0, 48, 0
2, 55920, Note_on_c, 0, 36, 96
2, 55920, Note_on_c, 0, 48, 96
2, 56039, Note_on_c, 0, 36, 0
2, 56039, Note_on_c, 0, 48, 0
2, 56160, Note_on_c, 0, 36, 96
2, 56160, Note_on_c, 0, 48, 96
2, 56273, Note_on_c, 0, 36, 0
2, 56273, Note_on_c, 0, 48, 0
2, 56280, Note_on_c, 0, 36, 96
2, 56280, Note_on_c, 0, 48, 96
2, 56393, Note_on_c, 0, 36, 0
2, 56393, Note_on_c, 0, 48, 0
2, 56520, Note_on_c, 0, 36, 96
2, 56520, Note_on_c, 0, 48, 96
2, 56633, Note_on_c, 0, 36, 0
2, 56633, Note_on_c, 0, 48, 0
2, 56760, Note_on_c, 0, 36, 96
2, 56760, Note_on_c, 0, 48, 96
2, 56873, Note_on_c, 0, 36, 0
2, 56873, Note_on_c, 0, 48, 0
2, 57000, Note_on_c, 0, 36, 96
2, 57000, Note_on_c, 0, 48, 96
2, 57113, Note_on_c, 0, 36, 0
2, 57113, Note_on_c, 0, 48, 0
2, 57120, Note_on_c, 0, 36, 96
2, 57120, Note_on_c, 0, 48, 96
2, 57233, Note_on_c, 0, 36, 0
2, 57233, Note_on_c, 0, 48, 0
2, 57240, Note_on_c, 0, 36, 96
2, 57240, Note_on_c, 0, 48, 96
2, 57353, Note_on_c, 0, 36, 0
2, 57353, Note_on_c, 0, 48, 0
2, 57360, Note_on_c, 0, 48, 96
2, 57587, Note_on_c, 0, 48, 0
2, 57600, Note_on_c, 0, 38, 96
2, 57600, Note_on_c, 0, 50, 96
2, 57839, Note_on_c, 0, 38, 0
2, 57839, Note_on_c, 0, 50, 0
2, 57840, Note_on_c, 0, 38, 96
2, 57840, Note_on_c, 0, 50, 96
2, 57959, Note_on_c, 0, 38, 0
2, 57959, Note_on_c, 0, 50, 0
2, 58080, Note_on_c, 0, 38, 96
2, 58080, Note_on_c, 0, 50, 96
2, 58193, Note_on_c, 0, 38, 0
2, 58193, Note_on_c, 0, 50, 0
2, 58200, Note_on_c, 0, 38, 96
2, 58200, Note_on_c, 0, 50, 96
2, 58313, Note_on_c, 0, 38, 0
2, 58313, Note_on_c, 0, 50, 0
2, 58440, Note_on_c, 0, 38, 96
2, 58440, Note_on_c, 0, 50, 96
2, 58553, Note_on_c, 0, 38, 0
2, 58553, Note_on_c, 0, 50, 0
2, 58680, Note_on_c, 0, 38, 96
2, 58680, Note_on_c, 0, 50, 96
2, 58793, Note_on_c, 0, 38, 0
2, 58793, Note_on_c, 0, 50, 0
2, 58920, Note_on_c, 0, 38, 96
2, 58920, Note_on_c, 0, 50, 96
2, 59033, Note_on_c, 0, 38, 0
2, 59033, Note_on_c, 0, 50, 0
2, 59040, Note_on_c, 0, 38, 96
2, 59040, Note_on_c, 0, 50, 96
2, 59153, Note_on_c, 0, 38, 0
2, 59153, Note_on_c, 0, 50, 0
2, 59160, Note_on_c, 0, 38, 96
2, 59160, Note_on_c, 0, 50, 96
2, 59273, Note_on_c, 0, 38, 0
2, 59273, Note_on_c, 0, 50, 0
2, 59280, Note_on_c, 0, 50, 96
2, 59507, Note_on_c, 0, 50, 0
2, 59520, Note_on_c, 0, 37, 96
2, 59520, Note_on_c, 0, 49, 96
2, 59759, Note_on_c, 0, 37, 0
2, 59759, Note_on_c, 0, 49, 0
2, 59760, Note_on_c, 0, 37, 96
2, 59760, Note_on_c, 0, 49, 96
2, 59879, Note_on_c, 0, 37, 0
2, 59879, Note_on_c, 0, 49, 0
2, 60000, Note_on_c, 0, 37, 96
2, 60000, Note_on_c, 0, 49, 96
2, 60113, Note_on_c, 0, 37, 0
2, 60113, Note_on_c, 0, 49, 0
2, 60120, Note_on_c, 0, 37, 96
2, 60120, Note_on_c, 0, 49, 96
2, 60233, Note_on_c, 0, 37, 0
2, 60233, Note_on_c, 0, 49, 0
2, 60360, Note_on_c, 0, 39, 96
2, 60360, Note_on_c, 0, 51, 96
2, 60587, Note_on_c, 0, 39, 0
2, 60587, Note_on_c, 0, 51, 0
2, 60600, Note_on_c, 0, 39, 96
2, 60600, Note_on_c, 0, 51, 96
2, 60713, Note_on_c, 0, 39, 0
2, 60713, Note_on_c, 0, 51, 0
2, 60840, Note_on_c, 0, 39, 96
2, 60840, Note_on_c, 0, 51, 96
2, 60953, Note_on_c, 0, 39, 0
2, 60953, Note_on_c, 0, 51, 0
2, 60960, Note_on_c, 0, 39, 96
2, 60960, Note_on_c, 0, 51, 96
2, 61073, Note_on_c, 0, 39, 0
2, 61073, Note_on_c, 0, 51, 0
2, 61080, Note_on_c, 0, 39, 96
2, 61080, Note_on_c, 0, 51, 96
2, 61193, Note_on_c, 0, 39, 0
2, 61193, Note_on_c, 0, 51, 0
2, 61200, Note_on_c, 0, 51, 96
2, 61427, Note_on_c, 0, 51, 0
2, 61440, Note_on_c, 0, 34, 96
2, 61440, Note_on_c, 0, 46, 96
2, 61679, Note_on_c, 0, 34, 0
2, 61679, Note_on_c, 0, 46, 0
2, 61680, Note_on_c, 0, 34, 96
2, 61680, Note_on_c, 0, 46, 96
2, 61799, Note_on_c, 0, 34, 0
2, 61799, Note_on_c, 0, 46, 0
2, 61920, Note_on_c, 0, 34, 96
2, 61920, Note_on_c, 0, 46, 96
2, 62033, Note_on_c, 0, 34, 0
2, 62033, Note_on_c, 0, 46, 0
2, 62040, Note_on_c, 0, 34, 96
2, 62040, Note_on_c, 0, 46, 96
2, 62153, Note_on_c, 0, 34, 0
2, 62153, Note_on_c, 0, 46, 0
2, 62280, Note_on_c, 0, 34, 96
2, 62280, Note_on_c, 0, 46, 96
2, 62393, Note_on_c, 0, 34, 0
2, 62393, Note_on_c, 0, 46, 0
2, 62520, Note_on_c, 0, 34, 96
2, 62520, Note_on_c, 0, 46, 96
2, 62633, Note_on_c, 0, 34, 0
2, 62633, Note_on_c, 0, 46, 0
2, 62760, Note_on_c, 0, 34, 96
2, 62760, Note_on_c, 0, 46, 96
2, 62873, Note_on_c, 0, 34, 0
2, 62873, Note_on_c, 0, 46, 0
2, 62880, Note_on_c, 0, 34, 96
2, 62880, Note_on_c, 0, 46, 96
2, 62993, Note_on_c, 0, 34, 0
2, 62993, Note_on_c, 0, 46, 0
2, 63000, Note_on_c, 0, 34, 96
2, 63000, Note_on_c, 0, 46, 96
2, 63113, Note_on_c, 0, 34, 0
2, 63113, Note_on_c, 0, 46, 0
2, 63120, Note_on_c, 0, 46, 96
2, 63347, Note_on_c, 0, 46, 0
2, 63360, Note_on_c, 0, 36, 96
2, 63360, Note_on_c, 0, 48, 96
2, 63599, Note_on_c, 0, 36, 0
2, 63599, Note_on_c, 0, 48, 0
2, 63600, Note_on_c, 0, 36, 96
2, 63600, Note_on_c, 0, 48, 96
2, 63719, Note_on_c, 0, 36, 0
2, 63719, Note_on_c, 0, 48, 0
2, 63840, Note_on_c, 0, 36, 96
2, 63840, Note_on_c, 0, 48, 96
2, 63953, Note_on_c, 0, 36, 0
2, 63953, Note_on_c, 0, 48, 0
2, 63960, Note_on_c, 0, 36, 96
2, 63960, Note_on_c, 0, 48, 96
2, 64073, Note_on_c, 0, 36, 0
2, 64073, Note_on_c, 0, 48, 0
2, 64200, Note_on_c, 0, 36, 96
2, 64200, Note_on_c, 0, 48, 96
2, 64313, Note_on_c, 0, 36, 0
2, 64313, Note_on_c, 0, 48, 0
2, 64440, Note_on_c, 0, 36, 96
2, 64440, Note_on_c, 0, 48, 96
2, 64553, Note_on_c, 0, 36, 0
2, 64553, Note_on_c, 0, 48, 0
2, 64680, Note_on_c, 0, 36, 96
2, 64680, Note_on_c, 0, 48, 96
2, 64793, Note_on_c, 0, 36, 0
2, 64793, Note_on_c, 0, 48, 0
2, 64800, Note_on_c, 0, 36, 96
2, 64800, Note_on_c, 0, 48, 96
2, 64913, Note_on_c, 0, 36, 0
2, 64913, Note_on_c, 0, 48, 0
2, 64920, Note_on_c, 0, 36, 96
2, 64920, Note_on_c, 0, 48, 96
2, 65033, Note_on_c, 0, 36, 0
2, 65033, Note_on_c, 0, 48, 0
2, 65040, Note_on_c, 0, 48, 96
2, 65267, Note_on_c, 0, 48, 0
2, 65280, Note_on_c, 0, 38, 96
2, 65280, Note_on_c, 0, 50, 96
2, 65519, Note_on_c, 0, 38, 0
2, 65519, Note_on_c, 0, 50, 0
2, 65520, Note_on_c, 0, 38, 96
2, 65520, Note_on_c, 0, 50, 96
2, 65639, Note_on_c, 0, 38, 0
2, 65639, Note_on_c, 0, 50, 0
2, 65760, Note_on_c, 0, 38, 96
2, 65760, Note_on_c, 0, 50, 96
2, 65873, Note_on_c, 0, 38, 0
2, 65873, Note_on_c, 0, 50, 0
2, 65880, Note_on_c, 0, 38, 96
2, 65880, Note_on_c, 0, 50, 96
2, 65993, Note_on_c, 0, 38, 0
2, 65993, Note_on_c, 0, 50, 0
2, 66120, Note_on_c, 0, 38, 96
2, 66120, Note_on_c, 0, 50, 96
2, 66233, Note_on_c, 0, 38, 0
2, 66233, Note_on_c, 0, 50, 0
2, 66360, Note_on_c, 0, 38, 96
2, 66360, Note_on_c, 0, 50, 96
2, 66473, Note_on_c, 0, 38, 0
2, 66473, Note_on_c, 0, 50, 0
2, 66600, Note_on_c, 0, 38, 96
2, 66600, Note_on_c, 0, 50, 96
2, 66713, Note_on_c, 0, 38, 0
2, 66713, Note_on_c, 0, 50, 0
2, 66720, Note_on_c, 0, 38, 96
2, 66720, Note_on_c, 0, 50, 96
2, 66833, Note_on_c, 0, 38, 0
2, 66833, Note_on_c, 0, 50, 0
2, 66840, Note_on_c, 0, 38, 96
2, 66840, Note_on_c, 0, 50, 96
2, 66953, Note_on_c, 0, 38, 0
2, 66953, Note_on_c, 0, 50, 0
2, 66960, Note_on_c, 0, 50, 96
2, 67187, Note_on_c, 0, 50, 0
2, 67200, Note_on_c, 0, 37, 96
2, 67200, Note_on_c, 0, 49, 96
2, 67439, Note_on_c, 0, 37, 0
2, 67439, Note_on_c, 0, 49, 0
2, 67440, Note_on_c, 0, 37, 96
2, 67440, Note_on_c, 0, 49, 96
2, 67559, Note_on_c, 0, 37, 0
2, 67559, Note_on_c, 0, 49, 0
2, 67680, Note_on_c, 0, 37, 96
2, 67680, Note_on_c, 0, 49, 96
2, 67793, Note_on_c, 0, 37, 0
2, 67793, Note_on_c, 0, 49, 0
2, 67800, Note_on_c, 0, 37, 96
2, 67800, Note_on_c, 0, 49, 96
2, 67913, Note_on_c, 0, 37, 0
2, 67913, Note_on_c, 0, 49, 0
2, 68040, Note_on_c, 0, 39, 96
2, 68040, Note_on_c, 0, 51, 96
2, 68267, Note_on_c, 0, 39, 0
2, 68267, Note_on_c, 0, 51, 0
2, 68280, Note_on_c, 0, 39, 96
2, 68280, Note_on_c, 0, 51, 96
2, 68393, Note_on_c, 0, 39, 0
2, 68393, Note_on_c, 0, 51, 0
2, 68520, Note_on_c, 0, 39, 96
2, 68520, Note_on_c, 0, 51, 96
2, 68633, Note_on_c, 0, 39, 0
2, 68633, Note_on_c, 0, 51, 0
2, 68640, Note_on_c, 0, 39, 96
2, 68640, Note_on_c, 0, 51, 96
2, 68753, Note_on_c, 0, 39, 0
2, 68753, Note_on_c, 0, 51, 0
2, 68760, Note_on_c, 0, 39, 96
2, 68760, Note_on_c, 0, 51, 96
2, 68873, Note_on_c, 0, 39, 0
2, 68873, Note_on_c, 0, 51, 0
2, 68880, Note_on_c, 0, 51, 96
2, 69107, Note_on_c, 0, 51, 0
2, 69120, Note_on_c, 0, 34, 96
2, 69120, Note_on_c, 0, 46, 96
2, 69359, Note_on_c, 0, 34, 0
2, 69359, Note_on_c, 0, 46, 0
2, 69360, Note_on_c, 0, 34, 96
2, 69360, Note_on_c, 0, 46, 96
2, 69479, Note_on_c, 0, 34, 0
2, 69479, Note_on_c, 0, 46, 0
2, 69600, Note_on_c, 0, 34, 96
2, 69600, Note_on_c, 0, 46, 96
2, 69713, Note_on_c, 0, 34, 0
2, 69713, Note_on_c, 0, 46, 0
2, 69720, Note_on_c, 0, 34, 96
2, 69720, Note_on_c, 0, 46, 96
2, 69833, Note_on_c, 0, 34, 0
2, 69833, Note_on_c, 0, 46, 0
2, 69960, Note_on_c, 0, 34, 96
2, 69960, Note_on_c, 0, 46, 96
2, 70073, Note_on_c, 0, 34, 0
2, 70073, Note_on_c, 0, 46, 0
2, 70200, Note_on_c, 0, 34, 96
2, 70200, Note_on_c, 0, 46, 96
2, 70313, Note_on_c, 0, 34, 0
2, 70313, Note_on_c, 0, 46, 0
2, 70440, Note_on_c, 0, 34, 96
2, 70440, Note_on_c, 0, 46, 96
2, 70553, Note_on_c, 0, 34, 0
2, 70553, Note_on_c, 0, 46, 0
2, 70560, Note_on_c, 0, 34, 96
2, 70560, Note_on_c, 0, 46, 96
2, 70673, Note_on_c, 0, 34, 0
2, 70673, Note_on_c, 0, 46, 0
2, 70680, Note_on_c, 0, 34, 96
2, 70680, Note_on_c, 0, 46, 96
2, 70793, Note_on_c, 0, 34, 0
2, 70793, Note_on_c, 0, 46, 0
2, 70800, Note_on_c, 0, 46, 96
2, 71027, Note_on_c, 0, 46, 0
2, 71040, Note_on_c, 0, 36, 96
2, 71040, Note_on_c, 0, 48, 96
2, 71279, Note_on_c, 0, 36, 0
2, 71279, Note_on_c, 0, 48, 0
2, 71280, Note_on_c, 0, 36, 96
2, 71280, Note_on_c, 0, 48, 96
2, 71399, Note_on_c, 0, 36, 0
2, 71399, Note_on_c, 0, 48, 0
2, 71520, Note_on_c, 0, 36, 96
2, 71520, Note_on_c, 0, 48, 96
2, 71633, Note_on_c, 0, 36, 0
2, 71633, Note_on_c, 0, 48, 0
2, 71640, Note_on_c, 0, 36, 96
2, 71640, Note_on_c, 0, 48, 96
2, 71753, Note_on_c, 0, 36, 0
2, 71753, Note_on_c, 0, 48, 0
2, 71880, Note_on_c, 0, 36, 96
2, 71880, Note_on_c, 0, 48, 96
2, 71993, Note_on_c, 0, 36, 0
2, 71993, Note_on_c, 0, 48, 0
2, 72120, Note_on_c, 0, 36, 96
2, 72120, Note_on_c, 0, 48, 96
2, 72233, Note_on_c, 0, 36, 0
2, 72233, Note_on_c, 0, 48, 0
2, 72360, Note_on_c, 0, 36, 96
2, 72360, Note_on_c, 0, 48, 96
2, 72473, Note_on_c, 0, 36, 0
2, 72473, Note_on_c, 0, 48, 0
2, 72480, Note_on_c, 0, 36, 96
2, 72480, Note_on_c, 0, 48, 96
2, 72593, Note_on_c, 0, 36, 0
2, 72593, Note_on_c, 0, 48, 0
2, 72600, Note_on_c, 0, 36, 96
2, 72600, Note_on_c, 0, 48, 96
2, 72713, Note_on_c, 0, 36, 0
2, 72713, Note_on_c, 0, 48, 0
2, 72720, Note_on_c, 0, 48, 96
2, 72947, Note_on_c, 0, 48, 0
2, 72960, Note_on_c, 0, 38, 96
2, 72960, Note_on_c, 0, 50, 96
2, 73199, Note_on_c, 0, 38, 0
2, 73199, Note_on_c, 0, 50, 0
2, 73200, Note_on_c, 0, 38, 96
2, 73200, Note_on_c, 0, 50, 96
2, 73319, Note_on_c, 0, 38, 0
2, 73319, Note_on_c, 0, 50, 0
2, 73440, Note_on_c, 0, 38, 96
2, 73440, Note_on_c, 0, 50, 96
2, 73553, Note_on_c, 0, 38, 0
2, 73553, Note_on_c, 0, 50, 0
2, 73560, Note_on_c, 0, 38, 96
2, 73560, Note_on_c, 0, 50, 96
2, 73673, Note_on_c, 0, 38, 0
2, 73673, Note_on_c, 0, 50, 0
2, 73800, Note_on_c, 0, 38, 96
2, 73800, Note_on_c, 0, 50, 96
2, 73913, Note_on_c, 0, 38, 0
2, 73913, Note_on_c, 0, 50, 0
2, 74040, Note_on_c, 0, 38, 96
2, 74040, Note_on_c, 0, 50, 96
2, 74153, Note_on_c, 0, 38, 0
2, 74153, Note_on_c, 0, 50, 0
2, 74280, Note_on_c, 0, 38, 96
2, 74280, Note_on_c, 0, 50, 96
2, 74393, Note_on_c, 0, 38, 0
2, 74393, Note_on_c, 0, 50, 0
2, 74400, Note_on_c, 0, 38, 96
2, 74400, Note_on_c, 0, 50, 96
2, 74513, Note_on_c, 0, 38, 0
2, 74513, Note_on_c, 0, 50, 0
2, 74520, Note_on_c, 0, 38, 96
2, 74520, Note_on_c, 0, 50, 96
2, 74633, Note_on_c, 0, 38, 0
2, 74633, Note_on_c, 0, 50, 0
2, 74640, Note_on_c, 0, 50, 96
2, 74867, Note_on_c, 0, 50, 0
2, 74880, Note_on_c, 0, 37, 96
2, 74880, Note_on_c, 0, 49, 96
2, 75119, Note_on_c, 0, 37, 0
2, 75119, Note_on_c, 0, 49, 0
2, 75120, Note_on_c, 0, 37, 96
2, 75120, Note_on_c, 0, 49, 96
2, 75239, Note_on_c, 0, 37, 0
2, 75239, Note_on_c, 0, 49, 0
2, 75360, Note_on_c, 0, 37, 96
2, 75360, Note_on_c, 0, 49, 96
2, 75473, Note_on_c, 0, 37, 0
2, 75473, Note_on_c, 0, 49, 0
2, 75480, Note_on_c, 0, 37, 96
2, 75480, Note_on_c, 0, 49, 96
2, 75593, Note_on_c, 0, 37, 0
2, 75593, Note_on_c, 0, 49, 0
2, 75720, Note_on_c, 0, 39, 96
2, 75720, Note_on_c, 0, 51, 96
2, 75947, Note_on_c, 0, 39, 0
2, 75947, Note_on_c, 0, 51, 0
2, 75960, Note_on_c, 0, 39, 96
2, 75960, Note_on_c, 0, 51, 96
2, 76073, Note_on_c, 0, 39, 0
2, 76073, Note_on_c, 0, 51, 0
2, 76200, Note_on_c, 0, 39, 96
2, 76200, Note_on_c, 0, 51, 96
2, 76313, Note_on_c, 0, 39, 0
2, 76313, Note_on_c, 0, 51, 0
2, 76320, Note_on_c, 0, 39, 96
2, 76320, Note_on_c, 0, 51, 96
2, 76433, Note_on_c, 0, 39, 0
2, 76433, Note_on_c, 0, 51, 0
2, 76440, Note_on_c, 0, 39, 96
2, 76440, Note_on_c, 0, 51, 96
2, 76553, Note_on_c, 0, 39, 0
2, 76553, Note_on_c, 0, 51, 0
2, 76560, Note_on_c, 0, 51, 96
2, 76787, Note_on_c, 0, 51, 0
2, 76800, Note_on_c, 0, 34, 80
2, 76800, Note_on_c, 0, 46, 80
2, 76919, Note_on_c, 0, 34, 0
2, 76919, Note_on_c, 0, 46, 0
2, 77040, Note_on_c, 0, 34, 80
2, 77040, Note_on_c, 0, 46, 80
2, 77159, Note_on_c, 0, 34, 0
2, 77159, Note_on_c, 0, 46, 0
2, 77280, Note_on_c, 0, 34, 80
2, 77280, Note_on_c, 0, 46, 80
2, 77393, Note_on_c, 0, 34, 0
2, 77393, Note_on_c, 0, 46, 0
2, 77400, Note_on_c, 0, 34, 80
2, 77400, Note_on_c, 0, 46, 80
2, 77513, Note_on_c, 0, 34, 0
2, 77513, Note_on_c, 0, 46, 0
2, 77640, Note_on_c, 0, 34, 80
2, 77640, Note_on_c, 0, 46, 80
2, 77753, Note_on_c, 0, 34, 0
2, 77753, Note_on_c, 0, 46, 0
2, 77880, Note_on_c, 0, 34, 80
2, 77880, Note_on_c, 0, 46, 80
2, 77993, Note_on_c, 0, 34, 0
2, 77993, Note_on_c, 0, 46, 0
2, 78120, Note_on_c, 0, 34, 80
2, 78120, Note_on_c, 0, 46, 80
2, 78233, Note_on_c, 0, 34, 0
2, 78233, Note_on_c, 0, 46, 0
2, 78240, Note_on_c, 0, 34, 80
2, 78240, Note_on_c, 0, 46, 80
2, 78353, Note_on_c, 0, 34, 0
2, 78353, Note_on_c, 0, 46, 0
2, 78360, Note_on_c, 0, 34, 80
2, 78360, Note_on_c, 0, 46, 80
2, 78473, Note_on_c, 0, 34, 0
2, 78473, Note_on_c, 0, 46, 0
2, 78480, Note_on_c, 0, 34, 80
2, 78480, Note_on_c, 0, 46, 80
2, 78599, Note_on_c, 0, 34, 0
2, 78599, Note_on_c, 0, 46, 0
2, 78720, Note_on_c, 0, 36, 80
2, 78720, Note_on_c, 0, 48, 80
2, 78839, Note_on_c, 0, 36, 0
2, 78839, Note_on_c, 0, 48, 0
2, 78960, Note_on_c, 0, 36, 80
2, 78960, Note_on_c, 0, 48, 80
2, 79079, Note_on_c, 0, 36, 0
2, 79079, Note_on_c, 0, 48, 0
2, 79200, Note_on_c, 0, 36, 80
2, 79200, Note_on_c, 0, 48, 80
2, 79313, Note_on_c, 0, 36, 0
2, 79313, Note_on_c, 0, 48, 0
2, 79320, Note_on_c, 0, 36, 80
2, 79320, Note_on_c, 0, 48, 80
2, 79433, Note_on_c, 0, 36, 0
2, 79433, Note_on_c, 0, 48, 0
2, 79560, Note_on_c, 0, 36, 80
2, 79560, Note_on_c, 0, 48, 80
2, 79673, Note_on_c, 0, 36, 0
2, 79673, Note_on_c, 0, 48, 0
2, 79800, Note_on_c, 0, 36, 80
2, 79800, Note_on_c, 0, 48, 80
2, 79913, Note_on_c, 0, 36, 0
2, 79913, Note_on_c, 0, 48, 0
2, 80040, Note_on_c, 0, 36, 80
2, 80040, Note_on_c, 0, 48, 80
2, 80153, Note_on_c, 0, 36, 0
2, 80153, Note_on_c, 0, 48, 0
2, 80160, Note_on_c, 0, 36, 80
2, 80160, Note_on_c, 0, 48, 80
2, 80273, Note_on_c, 0, 36, 0
2, 80273, Note_on_c, 0, 48, 0
2, 80280, Note_on_c, 0, 36, 80
2, 80280, Note_on_c, 0, 48, 80
2, 80393, Note_on_c, 0, 36, 0
2, 80393, Note_on_c, 0, 48, 0
2, 80400, Note_on_c, 0, 36, 80
2, 80400, Note_on_c, 0, 48, 80
2, 80519, Note_on_c, 0, 36, 0
2, 80519, Note_on_c, 0, 48, 0
2, 80640, Note_on_c, 0, 35, 80
2, 80640, Note_on_c, 0, 47, 80
2, 80759, Note_on_c, 0, 35, 0
2, 80759, Note_on_c, 0, 47, 0
2, 80880, Note_on_c, 0, 35, 80
2, 80880, Note_on_c, 0, 47, 80
2, 80999, Note_on_c, 0, 35, 0
2, 80999, Note_on_c, 0, 47, 0
2, 81120, Note_on_c, 0, 35, 80
2, 81120, Note_on_c, 0, 47, 80
2, 81233, Note_on_c, 0, 35, 0
2, 81233, Note_on_c, 0, 47, 0
2, 81240, Note_on_c, 0, 35, 80
2, 81240, Note_on_c, 0, 47, 80
2, 81353, Note_on_c, 0, 35, 0
2, 81353, Note_on_c, 0, 47, 0
2, 81480, Note_on_c, 0, 35, 80
2, 81480, Note_on_c, 0, 47, 80
2, 81593, Note_on_c, 0, 35, 0
2, 81593, Note_on_c, 0, 47, 0
2, 81720, Note_on_c, 0, 35, 80
2, 81720, Note_on_c, 0, 47, 80
2, 81833, Note_on_c, 0, 35, 0
2, 81833, Note_on_c, 0, 47, 0
2, 81960, Note_on_c, 0, 35, 80
2, 81960, Note_on_c, 0, 47, 80
2, 82073, Note_on_c, 0, 35, 0
2, 82073, Note_on_c, 0, 47, 0
2, 82080, Note_on_c, 0, 35, 80
2, 82080, Note_on_c, 0, 47, 80
2, 82193, Note_on_c, 0, 35, 0
2, 82193, Note_on_c, 0, 47, 0
2, 82200, Note_on_c, 0, 35, 80
2, 82200, Note_on_c, 0, 47, 80
2, 82313, Note_on_c, 0, 35, 0
2, 82313, Note_on_c, 0, 47, 0
2, 82320, Note_on_c, 0, 35, 80
2, 82320, Note_on_c, 0, 47, 80
2, 82439, Note_on_c, 0, 35, 0
2, 82439, Note_on_c, 0, 47, 0
2, 82560, Note_on_c, 0, 35, 80
2, 82560, Note_on_c, 0, 47, 80
2, 82679, Note_on_c, 0, 35, 0
2, 82679, Note_on_c, 0, 47, 0
2, 82800, Note_on_c, 0, 35, 80
2, 82800, Note_on_c, 0, 47, 80
2, 82919, Note_on_c, 0, 35, 0
2, 82919, Note_on_c, 0, 47, 0
2, 83040, Note_on_c, 0, 35, 80
2, 83040, Note_on_c, 0, 47, 80
2, 83153, Note_on_c, 0, 35, 0
2, 83153, Note_on_c, 0, 47, 0
2, 83160, Note_on_c, 0, 35, 80
2, 83160, Note_on_c, 0, 47, 80
2, 83273, Note_on_c, 0, 35, 0
2, 83273, Note_on_c, 0, 47, 0
2, 83400, Note_on_c, 0, 35, 80
2, 83400, Note_on_c, 0, 47, 80
2, 83513, Note_on_c, 0, 35, 0
2, 83513, Note_on_c, 0, 47, 0
2, 83640, Note_on_c, 0, 35, 80
2, 83640, Note_on_c, 0, 47, 80
2, 83753, Note_on_c, 0, 35, 0
2, 83753, Note_on_c, 0, 47, 0
2, 83880, Note_on_c, 0, 35, 80
2, 83880, Note_on_c, 0, 47, 80
2, 83993, Note_on_c, 0, 35, 0
2, 83993, Note_on_c, 0, 47, 0
2, 84000, Note_on_c, 0, 35, 80
2, 84000, Note_on_c, 0, 47, 80
2, 84113, Note_on_c, 0, 35, 0
2, 84113, Note_on_c, 0, 47, 0
2, 84120, Note_on_c, 0, 35, 80
2, 84120, Note_on_c, 0, 47, 80
2, 84233, Note_on_c, 0, 35, 0
2, 84233, Note_on_c, 0, 47, 0
2, 84240, Note_on_c, 0, 35, 80
2, 84240, Note_on_c, 0, 47, 80
2, 84359, Note_on_c, 0, 35, 0
2, 84359, Note_on_c, 0, 47, 0
2, 84480, Note_on_c, 0, 34, 80
2, 84480, Note_on_c, 0, 46, 80
2, 84599, Note_on_c, 0, 34, 0
2, 84599, Note_on_c, 0, 46, 0
2, 84720, Note_on_c, 0, 34, 80
2, 84720, Note_on_c, 0, 46, 80
2, 84839, Note_on_c, 0, 34, 0
2, 84839, Note_on_c, 0, 46, 0
2, 84960, Note_on_c, 0, 34, 80
2, 84960, Note_on_c, 0, 46, 80
2, 85073, Note_on_c, 0, 34, 0
2, 85073, Note_on_c, 0, 46, 0
2, 85080, Note_on_c, 0, 34, 80
2, 85080, Note_on_c, 0, 46, 80
2, 85193, Note_on_c, 0, 34, 0
2, 85193, Note_on_c, 0, 46, 0
2, 85320, Note_on_c, 0, 34, 80
2, 85320, Note_on_c, 0, 46, 80
2, 85433, Note_on_c, 0, 34, 0
2, 85433, Note_on_c, 0, 46, 0
2, 85560, Note_on_c, 0, 34, 80
2, 85560, Note_on_c, 0, 46, 80
2, 85673, Note_on_c, 0, 34, 0
2, 85673, Note_on_c, 0, 46, 0
2, 85800, Note_on_c, 0, 34, 80
2, 85800, Note_on_c, 0, 46, 80
2, 85913, Note_on_c, 0, 34, 0
2, 85913, Note_on_c, 0, 46, 0
2, 85920, Note_on_c, 0, 34, 80
2, 85920, Note_on_c, 0, 46, 80
2, 86033, Note_on_c, 0, 34, 0
2, 86033, Note_on_c, 0, 46, 0
2, 86040, Note_on_c, 0, 34, 80
2, 86040, Note_on_c, 0, 46, 80
2, 86153, Note_on_c, 0, 34, 0
2, 86153, Note_on_c, 0, 46, 0
2, 86160, Note_on_c, 0, 34, 80
2, 86160, Note_on_c, 0, 46, 80
2, 86279, Note_on_c, 0, 34, 0
2, 86279, Note_on_c, 0, 46, 0
2, 86400, Note_on_c, 0, 36, 80
2, 86400, Note_on_c, 0, 48, 80
2, 86519, Note_on_c, 0, 36, 0
2, 86519, Note_on_c, 0, 48, 0
2, 86640, Note_on_c, 0, 36, 80
2, 86640, Note_on_c, 0, 48, 80
2, 86759, Note_on_c, 0, 36, 0
2, 86759, Note_on_c, 0, 48, 0
2, 86880, Note_on_c, 0, 36, 80
2, 86880, Note_on_c, 0, 48, 80
2, 86993, Note_on_c, 0, 36, 0
2, 86993, Note_on_c, 0, 48, 0
2, 87000, Note_on_c, 0, 36, 80
2, 87000, Note_on_c, 0, 48, 80
2, 87113, Note_on_c, 0, 36, 0
2, 87113, Note_on_c, 0, 48, 0
2, 87240, Note_on_c, 0, 36, 80
2, 87240, Note_on_c, 0, 48, 80
2, 87353, Note_on_c, 0, 36, 0
2, 87353, Note_on_c, 0, 48, 0
2, 87480, Note_on_c, 0, 36, 80
2, 87480, Note_on_c, 0, 48, 80
2, 87593, Note_on_c, 0, 36, 0
2, 87593, Note_on_c, 0, 48, 0
2, 87720, Note_on_c, 0, 36, 80
2, 87720, Note_on_c, 0, 48, 80
2, 87833, Note_on_c, 0, 36, 0
2, 87833, Note_on_c, 0, 48, 0
2, 87840, Note_on_c, 0, 36, 80
2, 87840, Note_on_c, 0, 48, 80
2, 87953, Note_on_c, 0, 36, 0
2, 87953, Note_on_c, 0, 48, 0
2, 87960, Note_on_c, 0, 36, 80
2, 87960, Note_on_c, 0, 48, 80
2, 88073, Note_on_c, 0, 36, 0
2, 88073, Note_on_c, 0, 48, 0
2, 88080, Note_on_c, 0, 36, 80
2, 88080, Note_on_c, 0, 48, 80
2, 88199, Note_on_c, 0, 36, 0
2, 88199, Note_on_c, 0, 48, 0
2, 88320, Note_on_c, 0, 38, 80
2, 88320, Note_on_c, 0, 50, 80
2, 88439, Note_on_c, 0, 38, 0
2, 88439, Note_on_c, 0, 50, 0
2, 88560, Note_on_c, 0, 38, 80
2, 88560, Note_on_c, 0, 50, 80
2, 88679, Note_on_c, 0, 38, 0
2, 88679, Note_on_c, 0, 50, 0
2, 88800, Note_on_c, 0, 38, 80
2, 88800, Note_on_c, 0, 50, 80
2, 88913, Note_on_c, 0, 38, 0
2, 88913, Note_on_c, 0, 50, 0
2, 88920, Note_on_c, 0, 38, 80
2, 88920, Note_on_c, 0, 50, 80
2, 89033, Note_on_c, 0, 38, 0
2, 89033, Note_on_c, 0, 50, 0
2, 89160, Note_on_c, 0, 38, 80
2, 89160, Note_on_c, 0, 50, 80
2, 89273, Note_on_c, 0, 38, 0
2, 89273, Note_on_c, 0, 50, 0
2, 89400, Note_on_c, 0, 38, 80
2, 89400, Note_on_c, 0, 50, 80
2, 89513, Note_on_c, 0, 38, 0
2, 89513, Note_on_c, 0, 50, 0
2, 89640, Note_on_c, 0, 38, 80
2, 89640, Note_on_c, 0, 50, 80
2, 89753, Note_on_c, 0, 38, 0
2, 89753, Note_on_c, 0, 50, 0
2, 89760, Note_on_c, 0, 38, 80
2, 89760, Note_on_c, 0, 50, 80
2, 89873, Note_on_c, 0, 38, 0
2, 89873, Note_on_c, 0, 50, 0
2, 89880, Note_on_c, 0, 38, 80
2, 89880, Note_on_c, 0, 50, 80
2, 89993, Note_on_c, 0, 38, 0
2, 89993, Note_on_c, 0, 50, 0
2, 90000, Note_on_c, 0, 38, 80
2, 90000, Note_on_c, 0, 50, 80
2, 90119, Note_on_c, 0, 38, 0
2, 90119, Note_on_c, 0, 50, 0
2, 90240, Note_on_c, 0, 38, 80
2, 90240, Note_on_c, 0, 50, 80
2, 90359, Note_on_c, 0, 38, 0
2, 90359, Note_on_c, 0, 50, 0
2, 90480, Note_on_c, 0, 38, 80
2, 90480, Note_on_c, 0, 50, 80
2, 90599, Note_on_c, 0, 38, 0
2, 90599, Note_on_c, 0, 50, 0
2, 90720, Note_on_c, 0, 38, 80
2, 90720, Note_on_c, 0, 50, 80
2, 90833, Note_on_c, 0, 38, 0
2, 90833, Note_on_c, 0, 50, 0
2, 90840, Note_on_c, 0, 38, 80
2, 90840, Note_on_c, 0, 50, 80
2, 90953, Note_on_c, 0, 38, 0
2, 90953, Note_on_c, 0, 50, 0
2, 91080, Note_on_c, 0, 38, 80
2, 91080, Note_on_c, 0, 50, 80
2, 91193, Note_on_c, 0, 38, 0
2, 91193, Note_on_c, 0, 50, 0
2, 91320, Note_on_c, 0, 38, 80
2, 91320, Note_on_c, 0, 50, 80
2, 91433, Note_on_c, 0, 38, 0
2, 91433, Note_on_c, 0, 50, 0
2, 91560, Note_on_c, 0, 38, 80
2, 91560, Note_on_c, 0, 50, 80
2, 91673, Note_on_c, 0, 38, 0
2, 91673, Note_on_c, 0, 50, 0
2, 91680, Note_on_c, 0, 38, 80
2, 91680, Note_on_c, 0, 50, 80
2, 91793, Note_on_c, 0, 38, 0
2, 91800, Note_on_c, 0, 38, 80
2, 91800, Note_on_c, 0, 50, 0
2, 91800, Note_on_c, 0, 50, 80
2, 91913, Note_on_c, 0, 38, 0
2, 91920, Note_on_c, 0, 38, 80
2, 91920, Note_on_c, 0, 50, 0
2, 91920, Note_on_c, 0, 50, 80
2, 92039, Note_on_c, 0, 38, 0
2, 92135, Note_on_c, 0, 50, 0
2, 92160, Note_on_c, 0, 34, 96
2, 92280, Note_on_c, 0, 50, 96
2, 92393, Note_on_c, 0, 50, 0
2, 92400, Note_on_c, 0, 62, 96
2, 92519, Note_on_c, 0, 62, 0
2, 92640, Note_on_c, 0, 57, 96
2, 92759, Note_on_c, 0, 57, 0
2, 93000, Note_on_c, 0, 56, 96
2, 93113, Note_on_c, 0, 56, 0
2, 93240, Note_on_c, 0, 55, 96
2, 93353, Note_on_c, 0, 55, 0
2, 93480, Note_on_c, 0, 53, 96
2, 93707, Note_on_c, 0, 53, 0
2, 93720, Note_on_c, 0, 50, 96
2, 93833, Note_on_c, 0, 50, 0
2, 93840, Note_on_c, 0, 53, 96
2, 93953, Note_on_c, 0, 53, 0
2, 93960, Note_on_c, 0, 55, 96
2, 93983, Note_on_c, 0, 34, 0
2, 94073, Note_on_c, 0, 55, 0
2, 94080, Note_on_c, 0, 48, 96
2, 94080, Note_on_c, 0, 36, 96
2, 94193, Note_on_c, 0, 48, 0
2, 94200, Note_on_c, 0, 48, 96
2, 94313, Note_on_c, 0, 48, 0
2, 94320, Note_on_c, 0, 62, 96
2, 94439, Note_on_c, 0, 62, 0
2, 94560, Note_on_c, 0, 57, 96
2, 94679, Note_on_c, 0, 57, 0
2, 94920, Note_on_c, 0, 56, 96
2, 95033, Note_on_c, 0, 56, 0
2, 95160, Note_on_c, 0, 55, 96
2, 95273, Note_on_c, 0, 55, 0
2, 95400, Note_on_c, 0, 53, 96
2, 95627, Note_on_c, 0, 53, 0
2, 95640, Note_on_c, 0, 50, 96
2, 95753, Note_on_c, 0, 50, 0
2, 95760, Note_on_c, 0, 53, 96
2, 95873, Note_on_c, 0, 53, 0
2, 95880, Note_on_c, 0, 55, 96
2, 95903, Note_on_c, 0, 36, 0
2, 95993, Note_on_c, 0, 55, 0
2, 96000, Note_on_c, 0, 47, 96
2, 96000, Note_on_c, 0, 35, 96
2, 96113, Note_on_c, 0, 47, 0
2, 96120, Note_on_c, 0, 47, 96
2, 96233, Note_on_c, 0, 47, 0
2, 96240, Note_on_c, 0, 62, 96
2, 96359, Note_on_c, 0, 62, 0
2, 96480, Note_on_c, 0, 57, 96
2, 96599, Note_on_c, 0, 57, 0
2, 96840, Note_on_c, 0, 56, 96
2, 96953, Note_on_c, 0, 56, 0
2, 97080, Note_on_c, 0, 55, 96
2, 97193, Note_on_c, 0, 55, 0
2, 97320, Note_on_c, 0, 53, 96
2, 97547, Note_on_c, 0, 53, 0
2, 97560, Note_on_c, 0, 50, 96
2, 97673, Note_on_c, 0, 50, 0
2, 97680, Note_on_c, 0, 53, 96
2, 97793, Note_on_c, 0, 53, 0
2, 97800, Note_on_c, 0, 55, 96
2, 97823, Note_on_c, 0, 35, 0
2, 97913, Note_on_c, 0, 55, 0
2, 97920, Note_on_c, 0, 47, 96
2, 97920, Note_on_c, 0, 35, 96
2, 98033, Note_on_c, 0, 47, 0
2, 98040, Note_on_c, 0, 47, 96
2, 98153, Note_on_c, 0, 47, 0
2, 98160, Note_on_c, 0, 62, 96
2, 98279, Note_on_c, 0, 62, 0
2, 98400, Note_on_c, 0, 57, 96
2, 98519, Note_on_c, 0, 57, 0
2, 98760, Note_on_c, 0, 56, 96
2, 98873, Note_on_c, 0, 56, 0
2, 99000, Note_on_c, 0, 55, 96
2, 99113, Note_on_c, 0, 55, 0
2, 99240, Note_on_c, 0, 53, 96
2, 99467, Note_on_c, 0, 53, 0
2, 99480, Note_on_c, 0, 50, 96
2, 99593, Note_on_c, 0, 50, 0
2, 99600, Note_on_c, 0, 53, 96
2, 99713, Note_on_c, 0, 53, 0
2, 99720, Note_on_c, 0, 55, 96
2, 99743, Note_on_c, 0, 35, 0
2, 99833, Note_on_c, 0, 55, 0
2, 99840, Note_on_c, 0, 34, 96
2, 99960, Note_on_c, 0, 50, 96
2, 100073, Note_on_c, 0, 50, 0
2, 100080, Note_on_c, 0, 62, 96
2, 100199, Note_on_c, 0, 62, 0
2, 100320, Note_on_c, 0, 57, 96
2, 100439, Note_on_c, 0, 57, 0
2, 100680, Note_on_c, 0, 56, 96
2, 100793, Note_on_c, 0, 56, 0
2, 100920, Note_on_c, 0, 55, 96
2, 101033, Note_on_c, 0, 55, 0
2, 101160, Note_on_c, 0, 53, 96
2, 101387, Note_on_c, 0, 53, 0
2, 101400, Note_on_c, 0, 50, 96
2, 101513, Note_on_c, 0, 50, 0
2, 101520, Note_on_c, 0, 53, 96
2, 101633, Note_on_c, 0, 53, 0
2, 101640, Note_on_c, 0, 55, 96
2, 101663, Note_on_c, 0, 34, 0
2, 101753, Note_on_c, 0, 55, 0
2, 101760, Note_on_c, 0, 48, 96
2, 101760, Note_on_c, 0, 36, 96
2, 101873, Note_on_c, 0, 48, 0
2, 101880, Note_on_c, 0, 48, 96
2, 101993, Note_on_c, 0, 48, 0
2, 102000, Note_on_c, 0, 62, 96
2, 102119, Note_on_c, 0, 62, 0
2, 102240, Note_on_c, 0, 57, 96
2, 102359, Note_on_c, 0, 57, 0
2, 102600, Note_on_c, 0, 56, 96
2, 102713, Note_on_c, 0, 56, 0
2, 102840, Note_on_c, 0, 55, 96
2, 102953, Note_on_c, 0, 55, 0
2, 103080, Note_on_c, 0, 53, 96
2, 103307, Note_on_c, 0, 53, 0
2, 103320, Note_on_c, 0, 50, 96
2, 103433, Note_on_c, 0, 50, 0
2, 103440, Note_on_c, 0, 53, 96
2, 103553, Note_on_c, 0, 53, 0
2, 103560, Note_on_c, 0, 55, 96
2, 103583, Note_on_c, 0, 36, 0
2, 103673, Note_on_c, 0, 55, 0
2, 103680, Note_on_c, 0, 50, 96
2, 103680, Note_on_c, 0, 38, 96
2, 103793, Note_on_c, 0, 50, 0
2, 103800, Note_on_c, 0, 50, 96
2, 103913, Note_on_c, 0, 50, 0
2, 103920, Note_on_c, 0, 62, 96
2, 104039, Note_on_c, 0, 62, 0
2, 104160, Note_on_c, 0, 57, 96
2, 104279, Note_on_c, 0, 57, 0
2, 104520, Note_on_c, 0, 56, 96
2, 104633, Note_on_c, 0, 56, 0
2, 104760, Note_on_c, 0, 55, 96
2, 104873, Note_on_c, 0, 55, 0
2, 105000, Note_on_c, 0, 53, 96
2, 105227, Note_on_c, 0, 53, 0
2, 105240, Note_on_c, 0, 50, 96
2, 105353, Note_on_c, 0, 50, 0
2, 105360, Note_on_c, 0, 53, 96
2, 105473, Note_on_c, 0, 53, 0
2, 105480, Note_on_c, 0, 55, 96
2, 105503, Note_on_c, 0, 38, 0
2, 105593, Note_on_c, 0, 55, 0
2, 105600, Note_on_c, 0, 50, 96
2, 105600, Note_on_c, 0, 38, 96
2, 105713, Note_on_c, 0, 50, 0
2, 105720, Note_on_c, 0, 50, 96
2, 105833, Note_on_c, 0, 50, 0
2, 105840, Note_on_c, 0, 62, 96
2, 105959, Note_on_c, 0, 62, 0
2, 106080, Note_on_c, 0, 57, 96
2, 106199, Note_on_c, 0, 57, 0
2, 106440, Note_on_c, 0, 56, 96
2, 106553, Note_on_c, 0, 56, 0
2, 106680, Note_on_c, 0, 55, 96
2, 106793, Note_on_c, 0, 55, 0
2, 106920, Note_on_c, 0, 53, 96
2, 107147, Note_on_c, 0, 53, 0
2, 107160, Note_on_c, 0, 50, 96
2, 107273, Note_on_c, 0, 50, 0
2, 107280, Note_on_c, 0, 53, 96
2, 107393, Note_on_c, 0, 53, 0
2, 107400, Note_on_c, 0, 55, 96
2, 107423, Note_on_c, 0, 38, 0
2, 107513, Note_on_c, 0, 55, 0
2, 107520, Note_on_c, 0, 34, 96
2, 107520, Note_on_c, 0, 46, 96
2, 107759, Note_on_c, 0, 34, 0
2, 107759, Note_on_c, 0, 46, 0
2, 107760, Note_on_c, 0, 34, 96
2, 107760, Note_on_c, 0, 46, 96
2, 107987, Note_on_c, 0, 34, 0
2, 107987, Note_on_c, 0, 46, 0
2, 108000, Note_on_c, 0, 34, 96
2, 108000, Note_on_c, 0, 46, 96
2, 108113, Note_on_c, 0, 34, 0
2, 108113, Note_on_c, 0, 46, 0
2, 108120, Note_on_c, 0, 34, 96
2, 108120, Note_on_c, 0, 46, 96
2, 108233, Note_on_c, 0, 34, 0
2, 108233, Note_on_c, 0, 46, 0
2, 108360, Note_on_c, 0, 34, 96
2, 108360, Note_on_c, 0, 46, 96
2, 108473, Note_on_c, 0, 34, 0
2, 108473, Note_on_c, 0, 46, 0
2, 108600, Note_on_c, 0, 34, 96
2, 108600, Note_on_c, 0, 46, 96
2, 108713, Note_on_c, 0, 34, 0
2, 108713, Note_on_c, 0, 46, 0
2, 108840, Note_on_c, 0, 34, 96
2, 108840, Note_on_c, 0, 46, 96
2, 108953, Note_on_c, 0, 34, 0
2, 108953, Note_on_c, 0, 46, 0
2, 108960, Note_on_c, 0, 34, 96
2, 108960, Note_on_c, 0, 46, 96
2, 109073, Note_on_c, 0, 34, 0
2, 109073, Note_on_c, 0, 46, 0
2, 109080, Note_on_c, 0, 34, 96
2, 109080, Note_on_c, 0, 46, 96
2, 109193, Note_on_c, 0, 34, 0
2, 109193, Note_on_c, 0, 46, 0
2, 109200, Note_on_c, 0, 46, 96
2, 109427, Note_on_c, 0, 46, 0
2, 109440, Note_on_c, 0, 36, 96
2, 109440, Note_on_c, 0, 48, 96
2, 109679, Note_on_c, 0, 36, 0
2, 109679, Note_on_c, 0, 48, 0
2, 109680, Note_on_c, 0, 36, 96
2, 109680, Note_on_c, 0, 48, 96
2, 109907, Note_on_c, 0, 36, 0
2, 109907, Note_on_c, 0, 48, 0
2, 109920, Note_on_c, 0, 36, 96
2, 109920, Note_on_c, 0, 48, 96
2, 110033, Note_on_c, 0, 36, 0
2, 110033, Note_on_c, 0, 48, 0
2, 110040, Note_on_c, 0, 36, 96
2, 110040, Note_on_c, 0, 48, 96
2, 110153, Note_on_c, 0, 36, 0
2, 110153, Note_on_c, 0, 48, 0
2, 110280, Note_on_c, 0, 36, 96
2, 110280, Note_on_c, 0, 48, 96
2, 110393, Note_on_c, 0, 36, 0
2, 110393, Note_on_c, 0, 48, 0
2, 110520, Note_on_c, 0, 36, 96
2, 110520, Note_on_c, 0, 48, 96
2, 110633, Note_on_c, 0, 36, 0
2, 110633, Note_on_c, 0, 48, 0
2, 110760, Note_on_c, 0, 36, 96
2, 110760, Note_on_c, 0, 48, 96
2, 110873, Note_on_c, 0, 36, 0
2, 110873, Note_on_c, 0, 48, 0
2, 110880, Note_on_c, 0, 36, 96
2, 110880, Note_on_c, 0, 48, 96
2, 110993, Note_on_c, 0, 36, 0
2, 110993, Note_on_c, 0, 48, 0
2, 111000, Note_on_c, 0, 36, 96
2, 111000, Note_on_c, 0, 48, 96
2, 111113, Note_on_c, 0, 36, 0
2, 111113, Note_on_c, 0, 48, 0
2, 111120, Note_on_c, 0, 48, 96
2, 111239, Note_on_c, 0, 48, 0
2, 111240, Note_on_c, 0, 36, 96
2, 111353, Note_on_c, 0, 36, 0
2, 111360, Note_on_c, 0, 38, 96
2, 111360, Note_on_c, 0, 50, 96
2, 111599, Note_on_c, 0, 38, 0
2, 111599, Note_on_c, 0, 50, 0
2, 111600, Note_on_c, 0, 38, 96
2, 111600, Note_on_c, 0, 50, 96
2, 111827, Note_on_c, 0, 38, 0
2, 111827, Note_on_c, 0, 50, 0
2, 111840, Note_on_c, 0, 38, 96
2, 111840, Note_on_c, 0, 50, 96
2, 111953, Note_on_c, 0, 38, 0
2, 111953, Note_on_c, 0, 50, 0
2, 111960, Note_on_c, 0, 38, 96
2, 111960, Note_on_c, 0, 50, 96
2, 112073, Note_on_c, 0, 38, 0
2, 112073, Note_on_c, 0, 50, 0
2, 112200, Note_on_c, 0, 37, 96
2, 112200, Note_on_c, 0, 49, 96
2, 112313, Note_on_c, 0, 37, 0
2, 112313, Note_on_c, 0, 49, 0
2, 112440, Note_on_c, 0, 37, 96
2, 112440, Note_on_c, 0, 49, 96
2, 112553, Note_on_c, 0, 37, 0
2, 112553, Note_on_c, 0, 49, 0
2, 112680, Note_on_c, 0, 37, 96
2, 112680, Note_on_c, 0, 49, 96
2, 112793, Note_on_c, 0, 37, 0
2, 112793, Note_on_c, 0, 49, 0
2, 112800, Note_on_c, 0, 37, 96
2, 112800, Note_on_c, 0, 49, 96
2, 112913, Note_on_c, 0, 37, 0
2, 112913, Note_on_c, 0, 49, 0
2, 112920, Note_on_c, 0, 37, 96
2, 112920, Note_on_c, 0, 49, 96
2, 113033, Note_on_c, 0, 37, 0
2, 113033, Note_on_c, 0, 49, 0
2, 113040, Note_on_c, 0, 49, 96
2, 113267, Note_on_c, 0, 49, 0
2, 113280, Note_on_c, 0, 36, 96
2, 113280, Note_on_c, 0, 48, 96
2, 113519, Note_on_c, 0, 36, 0
2, 113519, Note_on_c, 0, 48, 0
2, 113520, Note_on_c, 0, 36, 96
2, 113520, Note_on_c, 0, 48, 96
2, 113747, Note_on_c, 0, 36, 0
2, 113747, Note_on_c, 0, 48, 0
2, 113760, Note_on_c, 0, 36, 96
2, 113760, Note_on_c, 0, 48, 96
2, 113873, Note_on_c, 0, 36, 0
2, 113873, Note_on_c, 0, 48, 0
2, 113880, Note_on_c, 0, 36, 96
2, 113880, Note_on_c, 0, 48, 96
2, 113993, Note_on_c, 0, 36, 0
2, 113993, Note_on_c, 0, 48, 0
2, 114120, Note_on_c, 0, 35, 96
2, 114120, Note_on_c, 0, 47, 96
2, 114233, Note_on_c, 0, 35, 0
2, 114233, Note_on_c, 0, 47, 0
2, 114360, Note_on_c, 0, 35, 96
2, 114360, Note_on_c, 0, 47, 96
2, 114473, Note_on_c, 0, 35, 0
2, 114473, Note_on_c, 0, 47, 0
2, 114600, Note_on_c, 0, 35, 96
2, 114600, Note_on_c, 0, 47, 96
2, 114713, Note_on_c, 0, 35, 0
2, 114713, Note_on_c, 0, 47, 0
2, 114720, Note_on_c, 0, 35, 96
2, 114720, Note_on_c, 0, 47, 96
2, 114833, Note_on_c, 0, 35, 0
2, 114833, Note_on_c, 0, 47, 0
2, 114840, Note_on_c, 0, 35, 96
2, 114840, Note_on_c, 0, 47, 96
2, 114953, Note_on_c, 0, 35, 0
2, 114953, Note_on_c, 0, 47, 0
2, 114960, Note_on_c, 0, 47, 96
2, 115187, Note_on_c, 0, 47, 0
2, 115200, Note_on_c, 0, 34, 96
2, 115200, Note_on_c, 0, 46, 96
2, 115439, Note_on_c, 0, 34, 0
2, 115439, Note_on_c, 0, 46, 0
2, 115440, Note_on_c, 0, 34, 96
2, 115440, Note_on_c, 0, 46, 96
2, 115667, Note_on_c, 0, 34, 0
2, 115667, Note_on_c, 0, 46, 0
2, 115680, Note_on_c, 0, 34, 96
2, 115680, Note_on_c, 0, 46, 96
2, 115793, Note_on_c, 0, 34, 0
2, 115793, Note_on_c, 0, 46, 0
2, 115800, Note_on_c, 0, 34, 96
2, 115800, Note_on_c, 0, 46, 96
2, 115913, Note_on_c, 0, 34, 0
2, 115913, Note_on_c, 0, 46, 0
2, 116040, Note_on_c, 0, 34, 96
2, 116040, Note_on_c, 0, 46, 96
2, 116153, Note_on_c, 0, 34, 0
2, 116153, Note_on_c, 0, 46, 0
2, 116280, Note_on_c, 0, 34, 96
2, 116280, Note_on_c, 0, 46, 96
2, 116393, Note_on_c, 0, 34, 0
2, 116393, Note_on_c, 0, 46, 0
2, 116520, Note_on_c, 0, 34, 96
2, 116520, Note_on_c, 0, 46, 96
2, 116633, Note_on_c, 0, 34, 0
2, 116633, Note_on_c, 0, 46, 0
2, 116640, Note_on_c, 0, 34, 96
2, 116640, Note_on_c, 0, 46, 96
2, 116753, Note_on_c, 0, 34, 0
2, 116753, Note_on_c, 0, 46, 0
2, 116760, Note_on_c, 0, 34, 96
2, 116760, Note_on_c, 0, 46, 96
2, 116873, Note_on_c, 0, 34, 0
2, 116873, Note_on_c, 0, 46, 0
2, 116880, Note_on_c, 0, 46, 96
2, 117107, Note_on_c, 0, 46, 0
2, 117120, Note_on_c, 0, 36, 96
2, 117120, Note_on_c, 0, 48, 96
2, 117359, Note_on_c, 0, 36, 0
2, 117359, Note_on_c, 0, 48, 0
2, 117360, Note_on_c, 0, 36, 96
2, 117360, Note_on_c, 0, 48, 96
2, 117587, Note_on_c, 0, 36, 0
2, 117587, Note_on_c, 0, 48, 0
2, 117600, Note_on_c, 0, 36, 96
2, 117600, Note_on_c, 0, 48, 96
2, 117713, Note_on_c, 0, 36, 0
2, 117713, Note_on_c, 0, 48, 0
2, 117720, Note_on_c, 0, 36, 96
2, 117720, Note_on_c, 0, 48, 96
2, 117833, Note_on_c, 0, 36, 0
2, 117833, Note_on_c, 0, 48, 0
2, 117960, Note_on_c, 0, 36, 96
2, 117960, Note_on_c, 0, 48, 96
2, 118073, Note_on_c, 0, 36, 0
2, 118073, Note_on_c, 0, 48, 0
2, 118200, Note_on_c, 0, 36, 96
2, 118200, Note_on_c, 0, 48, 96
2, 118313, Note_on_c, 0, 36, 0
2, 118313, Note_on_c, 0, 48, 0
2, 118440, Note_on_c, 0, 36, 96
2, 118440, Note_on_c, 0, 48, 96
2, 118553, Note_on_c, 0, 36, 0
2, 118553, Note_on_c, 0, 48, 0
2, 118560, Note_on_c, 0, 36, 96
2, 118560, Note_on_c, 0, 48, 96
2, 118673, Note_on_c, 0, 36, 0
2, 118673, Note_on_c, 0, 48, 0
2, 118680, Note_on_c, 0, 36, 96
2, 118680, Note_on_c, 0, 48, 96
2, 118793, Note_on_c, 0, 36, 0
2, 118793, Note_on_c, 0, 48, 0
2, 118800, Note_on_c, 0, 48, 96
2, 118919, Note_on_c, 0, 48, 0
2, 118920, Note_on_c, 0, 36, 96
2, 119033, Note_on_c, 0, 36, 0
2, 119040, Note_on_c, 0, 38, 96
2, 119040, Note_on_c, 0, 50, 96
2, 119279, Note_on_c, 0, 38, 0
2, 119279, Note_on_c, 0, 50, 0
2, 119280, Note_on_c, 0, 38, 96
2, 119280, Note_on_c, 0, 50, 96
2, 119507, Note_on_c, 0, 38, 0
2, 119507, Note_on_c, 0, 50, 0
2, 119520, Note_on_c, 0, 38, 96
2, 119520, Note_on_c, 0, 50, 96
2, 119633, Note_on_c, 0, 38, 0
2, 119633, Note_on_c, 0, 50, 0
2, 119640, Note_on_c, 0, 38, 96
2, 119640, Note_on_c, 0, 50, 96
2, 119753, Note_on_c, 0, 38, 0
2, 119753, Note_on_c, 0, 50, 0
2, 119880, Note_on_c, 0, 38, 96
2, 119880, Note_on_c, 0, 50, 96
2, 119993, Note_on_c, 0, 38, 0
2, 119993, Note_on_c, 0, 50, 0
2, 120120, Note_on_c, 0, 38, 96
2, 120120, Note_on_c, 0, 50, 96
2, 120233, Note_on_c, 0, 38, 0
2, 120233, Note_on_c, 0, 50, 0
2, 120360, Note_on_c, 0, 38, 96
2, 120360, Note_on_c, 0, 50, 96
2, 120473, Note_on_c, 0, 38, 0
2, 120473, Note_on_c, 0, 50, 0
2, 120480, Note_on_c, 0, 38, 96
2, 120480, Note_on_c, 0, 50, 96
2, 120593, Note_on_c, 0, 38, 0
2, 120593, Note_on_c, 0, 50, 0
2, 120600, Note_on_c, 0, 38, 96
2, 120600, Note_on_c, 0, 50, 96
2, 120713, Note_on_c, 0, 38, 0
2, 120713, Note_on_c, 0, 50, 0
2, 120720, Note_on_c, 0, 50, 96
2, 120947, Note_on_c, 0, 50, 0
2, 120960, Note_on_c, 0, 38, 96
2, 120960, Note_on_c, 0, 50, 96
2, 121199, Note_on_c, 0, 38, 0
2, 121199, Note_on_c, 0, 50, 0
2, 121200, Note_on_c, 0, 38, 96
2, 121200, Note_on_c, 0, 50, 96
2, 121427, Note_on_c, 0, 38, 0
2, 121427, Note_on_c, 0, 50, 0
2, 121440, Note_on_c, 0, 38, 96
2, 121440, Note_on_c, 0, 50, 96
2, 121553, Note_on_c, 0, 38, 0
2, 121553, Note_on_c, 0, 50, 0
2, 121560, Note_on_c, 0, 38, 96
2, 121560, Note_on_c, 0, 50, 96
2, 121673, Note_on_c, 0, 38, 0
2, 121673, Note_on_c, 0, 50, 0
2, 121800, Note_on_c, 0, 38, 96
2, 121800, Note_on_c, 0, 50, 96
2, 121913, Note_on_c, 0, 38, 0
2, 121913, Note_on_c, 0, 50, 0
2, 122040, Note_on_c, 0, 38, 96
2, 122040, Note_on_c, 0, 50, 96
2, 122153, Note_on_c, 0, 38, 0
2, 122153, Note_on_c, 0, 50, 0
2, 122280, Note_on_c, 0, 38, 96
2, 122280, Note_on_c, 0, 50, 96
2, 122393, Note_on_c, 0, 38, 0
2, 122393, Note_on_c, 0, 50, 0
2, 122400, Note_on_c, 0, 38, 96
2, 122400, Note_on_c, 0, 50, 96
2, 122513, Note_on_c, 0, 38, 0
2, 122513, Note_on_c, 0, 50, 0
2, 122520, Note_on_c, 0, 38, 96
2, 122520, Note_on_c, 0, 50, 96
2, 122633, Note_on_c, 0, 38, 0
2, 122633, Note_on_c, 0, 50, 0
2, 122640, Note_on_c, 0, 50, 96
2, 122867, Note_on_c, 0, 50, 0
2, 122880, Note_on_c, 0, 34, 96
2, 122880, Note_on_c, 0, 46, 96
2, 123119, Note_on_c, 0, 34, 0
2, 123119, Note_on_c, 0, 46, 0
2, 123120, Note_on_c, 0, 34, 96
2, 123120, Note_on_c, 0, 46, 96
2, 123347, Note_on_c, 0, 34, 0
2, 123347, Note_on_c, 0, 46, 0
2, 123360, Note_on_c, 0, 34, 96
2, 123360, Note_on_c, 0, 46, 96
2, 123473, Note_on_c, 0, 34, 0
2, 123473, Note_on_c, 0, 46, 0
2, 123480, Note_on_c, 0, 34, 96
2, 123480, Note_on_c, 0, 46, 96
2, 123593, Note_on_c, 0, 34, 0
2, 123593, Note_on_c, 0, 46, 0
2, 123720, Note_on_c, 0, 34, 96
2, 123720, Note_on_c, 0, 46, 96
2, 123833, Note_on_c, 0, 34, 0
2, 123833, Note_on_c, 0, 46, 0
2, 123960, Note_on_c, 0, 34, 96
2, 123960, Note_on_c, 0, 46, 96
2, 124073, Note_on_c, 0, 34, 0
2, 124073, Note_on_c, 0, 46, 0
2, 124200, Note_on_c, 0, 34, 96
2, 124200, Note_on_c, 0, 46, 96
2, 124313, Note_on_c, 0, 34, 0
2, 124313, Note_on_c, 0, 46, 0
2, 124320, Note_on_c, 0, 34, 96
2, 124320, Note_on_c, 0, 46, 96
2, 124433, Note_on_c, 0, 34, 0
2, 124433, Note_on_c, 0, 46, 0
2, 124440, Note_on_c, 0, 34, 96
2, 124440, Note_on_c, 0, 46, 96
2, 124553, Note_on_c, 0, 34, 0
2, 124553, Note_on_c, 0, 46, 0
2, 124560, Note_on_c, 0, 46, 96
2, 124787, Note_on_c, 0, 46, 0
2, 124800, Note_on_c, 0, 36, 96
2, 124800, Note_on_c, 0, 48, 96
2, 125039, Note_on_c, 0, 36, 0
2, 125039, Note_on_c, 0, 48, 0
2, 125040, Note_on_c, 0, 36, 96
2, 125040, Note_on_c, 0, 48, 96
2, 125267, Note_on_c, 0, 36, 0
2, 125267, Note_on_c, 0, 48, 0
2, 125280, Note_on_c, 0, 36, 96
2, 125280, Note_on_c, 0, 48, 96
2, 125393, Note_on_c, 0, 36, 0
2, 125393, Note_on_c, 0, 48, 0
2, 125400, Note_on_c, 0, 36, 96
2, 125400, Note_on_c, 0, 48, 96
2, 125513, Note_on_c, 0, 36, 0
2, 125513, Note_on_c, 0, 48, 0
2, 125640, Note_on_c, 0, 36, 96
2, 125640, Note_on_c, 0, 48, 96
2, 125753, Note_on_c, 0, 36, 0
2, 125753, Note_on_c, 0, 48, 0
2, 125880, Note_on_c, 0, 36, 96
2, 125880, Note_on_c, 0, 48, 96
2, 125993, Note_on_c, 0, 36, 0
2, 125993, Note_on_c, 0, 48, 0
2, 126120, Note_on_c, 0, 36, 96
2, 126120, Note_on_c, 0, 48, 96
2, 126233, Note_on_c, 0, 36, 0
2, 126233, Note_on_c, 0, 48, 0
2, 126240, Note_on_c, 0, 36, 96
2, 126240, Note_on_c, 0, 48, 96
2, 126353, Note_on_c, 0, 36, 0
2, 126353, Note_on_c, 0, 48, 0
2, 126360, Note_on_c, 0, 36, 96
2, 126360, Note_on_c, 0, 48, 96
2, 126473, Note_on_c, 0, 36, 0
2, 126473, Note_on_c, 0, 48, 0
2, 126480, Note_on_c, 0, 48, 96
2, 126599, Note_on_c, 0, 48, 0
2, 126600, Note_on_c, 0, 36, 96
2, 126713, Note_on_c, 0, 36, 0
2, 126720, Note_on_c, 0, 38, 96
2, 126720, Note_on_c, 0, 50, 96
2, 126959, Note_on_c, 0, 38, 0
2, 126959, Note_on_c, 0, 50, 0
2, 126960, Note_on_c, 0, 38, 96
2, 126960, Note_on_c, 0, 50, 96
2, 127187, Note_on_c, 0, 38, 0
2, 127187, Note_on_c, 0, 50, 0
2, 127200, Note_on_c, 0, 38, 96
2, 127200, Note_on_c, 0, 50, 96
2, 127313, Note_on_c, 0, 38, 0
2, 127313, Note_on_c, 0, 50, 0
2, 127320, Note_on_c, 0, 38, 96
2, 127320, Note_on_c, 0, 50, 96
2, 127433, Note_on_c, 0, 38, 0
2, 127433, Note_on_c, 0, 50, 0
2, 127560, Note_on_c, 0, 37, 96
2, 127560, Note_on_c, 0, 49, 96
2, 127673, Note_on_c, 0, 37, 0
2, 127673, Note_on_c, 0, 49, 0
2, 127800, Note_on_c, 0, 37, 96
2, 127800, Note_on_c, 0, 49, 96
2, 127913, Note_on_c, 0, 37, 0
2, 127913, Note_on_c, 0, 49, 0
2, 128040, Note_on_c, 0, 37, 96
2, 128040, Note_on_c, 0, 49, 96
2, 128153, Note_on_c, 0, 37, 0
2, 128153, Note_on_c, 0, 49, 0
2, 128160, Note_on_c, 0, 37, 96
2, 128160, Note_on_c, 0, 49, 96
2, 128273, Note_on_c, 0, 37, 0
2, 128273, Note_on_c, 0, 49, 0
2, 128280, Note_on_c, 0, 37, 96
2, 128280, Note_on_c, 0, 49, 96
2, 128393, Note_on_c, 0, 37, 0
2, 128393, Note_on_c, 0, 49, 0
2, 128400, Note_on_c, 0, 49, 96
2, 128627, Note_on_c, 0, 49, 0
2, 128640, Note_on_c, 0, 36, 96
2, 128640, Note_on_c, 0, 48, 96
2, 128879, Note_on_c, 0, 36, 0
2, 128879, Note_on_c, 0, 48, 0
2, 128880, Note_on_c, 0, 36, 96
2, 128880, Note_on_c, 0, 48, 96
2, 129107, Note_on_c, 0, 36, 0
2, 129107, Note_on_c, 0, 48, 0
2, 129120, Note_on_c, 0, 36, 96
2, 129120, Note_on_c, 0, 48, 96
2, 129233, Note_on_c, 0, 36, 0
2, 129233, Note_on_c, 0, 48, 0
2, 129240, Note_on_c, 0, 36, 96
2, 129240, Note_on_c, 0, 48, 96
2, 129353, Note_on_c, 0, 36, 0
2, 129353, Note_on_c, 0, 48, 0
2, 129480, Note_on_c, 0, 35, 96
2, 129480, Note_on_c, 0, 47, 96
2, 129593, Note_on_c, 0, 35, 0
2, 129593, Note_on_c, 0, 47, 0
2, 129720, Note_on_c, 0, 35, 96
2, 129720, Note_on_c, 0, 47, 96
2, 129833, Note_on_c, 0, 35, 0
2, 129833, Note_on_c, 0, 47, 0
2, 129960, Note_on_c, 0, 35, 96
2, 129960, Note_on_c, 0, 47, 96
2, 130073, Note_on_c, 0, 35, 0
2, 130073, Note_on_c, 0, 47, 0
2, 130080, Note_on_c, 0, 35, 96
2, 130080, Note_on_c, 0, 47, 96
2, 130193, Note_on_c, 0, 35, 0
2, 130193, Note_on_c, 0, 47, 0
2, 130200, Note_on_c, 0, 35, 96
2, 130200, Note_on_c, 0, 47, 96
2, 130313, Note_on_c, 0, 35, 0
2, 130313, Note_on_c, 0, 47, 0
2, 130320, Note_on_c, 0, 47, 96
2, 130547, Note_on_c, 0, 47, 0
2, 130560, Note_on_c, 0, 34, 96
2, 130560, Note_on_c, 0, 46, 96
2, 130799, Note_on_c, 0, 34, 0
2, 130799, Note_on_c, 0, 46, 0
2, 130800, Note_on_c, 0, 34, 96
2, 130800, Note_on_c, 0, 46, 96
2, 131027, Note_on_c, 0, 34, 0
2, 131027, Note_on_c, 0, 46, 0
2, 131040, Note_on_c, 0, 34, 96
2, 131040, Note_on_c, 0, 46, 96
2, 131153, Note_on_c, 0, 34, 0
2, 131153, Note_on_c, 0, 46, 0
2, 131160, Note_on_c, 0, 34, 96
2, 131160, Note_on_c, 0, 46, 96
2, 131273, Note_on_c, 0, 34, 0
2, 131273, Note_on_c, 0, 46, 0
2, 131400, Note_on_c, 0, 34, 96
2, 131400, Note_on_c, 0, 46, 96
2, 131513, Note_on_c, 0, 34, 0
2, 131513, Note_on_c, 0, 46, 0
2, 131640, Note_on_c, 0, 34, 96
2, 131640, Note_on_c, 0, 46, 96
2, 131753, Note_on_c, 0, 34, 0
2, 131753, Note_on_c, 0, 46, 0
2, 131880, Note_on_c, 0, 34, 96
2, 131880, Note_on_c, 0, 46, 96
2, 131993, Note_on_c, 0, 34, 0
2, 131993, Note_on_c, 0, 46, 0
2, 132000, Note_on_c, 0, 34, 96
2, 132000, Note_on_c, 0, 46, 96
2, 132113, Note_on_c, 0, 34, 0
2, 132113, Note_on_c, 0, 46, 0
2, 132120, Note_on_c, 0, 34, 96
2, 132120, Note_on_c, 0, 46, 96
2, 132233, Note_on_c, 0, 34, 0
2, 132233, Note_on_c, 0, 46, 0
2, 132240, Note_on_c, 0, 46, 96
2, 132467, Note_on_c, 0, 46, 0
2, 132480, Note_on_c, 0, 36, 96
2, 132480, Note_on_c, 0, 48, 96
2, 132719, Note_on_c, 0, 36, 0
2, 132719, Note_on_c, 0, 48, 0
2, 132720, Note_on_c, 0, 36, 96
2, 132720, Note_on_c, 0, 48, 96
2, 132947, Note_on_c, 0, 36, 0
2, 132947, Note_on_c, 0, 48, 0
2, 132960, Note_on_c, 0, 36, 96
2, 132960, Note_on_c, 0, 48, 96
2, 133073, Note_on_c, 0, 36, 0
2, 133073, Note_on_c, 0, 48, 0
2, 133080, Note_on_c, 0, 36, 96
2, 133080, Note_on_c, 0, 48, 96
2, 133193, Note_on_c, 0, 36, 0
2, 133193, Note_on_c, 0, 48, 0
2, 133320, Note_on_c, 0, 36, 96
2, 133320, Note_on_c, 0, 48, 96
2, 133433, Note_on_c, 0, 36, 0
2, 133433, Note_on_c, 0, 48, 0
2, 133560, Note_on_c, 0, 36, 96
2, 133560, Note_on_c, 0, 48, 96
2, 133673, Note_on_c, 0, 36, 0
2, 133673, Note_on_c, 0, 48, 0
2, 133800, Note_on_c, 0, 36, 96
2, 133800, Note_on_c, 0, 48, 96
2, 133913, Note_on_c, 0, 36, 0
2, 133913, Note_on_c, 0, 48, 0
2, 133920, Note_on_c, 0, 36, 96
2, 133920, Note_on_c, 0, 48, 96
2, 134033, Note_on_c, 0, 36, 0
2, 134033, Note_on_c, 0, 48, 0
2, 134040, Note_on_c, 0, 36, 96
2, 134040, Note_on_c, 0, 48, 96
2, 134153, Note_on_c, 0, 36, 0
2, 134153, Note_on_c, 0, 48, 0
2, 134160, Note_on_c, 0, 48, 96
2, 134279, Note_on_c, 0, 48, 0
2, 134280, Note_on_c, 0, 36, 96
2, 134393, Note_on_c, 0, 36, 0
2, 134400, Note_on_c, 0, 38, 96
2, 134400, Note_on_c, 0, 50, 96
2, 134639, Note_on_c, 0, 38, 0
2, 134639, Note_on_c, 0, 50, 0
2, 134640, Note_on_c, 0, 38, 96
2, 134640, Note_on_c, 0, 50, 96
2, 134867, Note_on_c, 0, 38, 0
2, 134867, Note_on_c, 0, 50, 0
2, 134880, Note_on_c, 0, 38, 96
2, 134880, Note_on_c, 0, 50, 96
2, 134993, Note_on_c, 0, 38, 0
2, 134993, Note_on_c, 0, 50, 0
2, 135000, Note_on_c, 0, 38, 96
2, 135000, Note_on_c, 0, 50, 96
2, 135113, Note_on_c, 0, 38, 0
2, 135113, Note_on_c, 0, 50, 0
2, 135240, Note_on_c, 0, 38, 96
2, 135240, Note_on_c, 0, 50, 96
2, 135353, Note_on_c, 0, 38, 0
2, 135353, Note_on_c, 0, 50, 0
2, 135480, Note_on_c, 0, 38, 96
2, 135480, Note_on_c, 0, 50, 96
2, 135593, Note_on_c, 0, 38, 0
2, 135593, Note_on_c, 0, 50, 0
2, 135720, Note_on_c, 0, 38, 96
2, 135720, Note_on_c, 0, 50, 96
2, 135833, Note_on_c, 0, 38, 0
2, 135833, Note_on_c, 0, 50, 0
2, 135840, Note_on_c, 0, 38, 96
2, 135840, Note_on_c, 0, 50, 96
2, 135953, Note_on_c, 0, 38, 0
2, 135953, Note_on_c, 0, 50, 0
2, 135960, Note_on_c, 0, 38, 96
2, 135960, Note_on_c, 0, 50, 96
2, 136073, Note_on_c, 0, 38, 0
2, 136073, Note_on_c, 0, 50, 0
2, 136080, Note_on_c, 0, 50, 96
2, 136307, Note_on_c, 0, 50, 0
2, 136320, Note_on_c, 0, 38, 96
2, 136320, Note_on_c, 0, 50, 96
2, 136559, Note_on_c, 0, 38, 0
2, 136559, Note_on_c, 0, 50, 0
2, 136560, Note_on_c, 0, 38, 96
2, 136560, Note_on_c, 0, 50, 96
2, 136787, Note_on_c, 0, 38, 0
2, 136787, Note_on_c, 0, 50, 0
2, 136800, Note_on_c, 0, 38, 96
2, 136800, Note_on_c, 0, 50, 96
2, 136913, Note_on_c, 0, 38, 0
2, 136913, Note_on_c, 0, 50, 0
2, 136920, Note_on_c, 0, 38, 96
2, 136920, Note_on_c, 0, 50, 96
2, 137033, Note_on_c, 0, 38, 0
2, 137033, Note_on_c, 0, 50, 0
2, 137160, Note_on_c, 0, 38, 96
2, 137160, Note_on_c, 0, 50, 96
2, 137273, Note_on_c, 0, 38, 0
2, 137273, Note_on_c, 0, 50, 0
2, 137400, Note_on_c, 0, 38, 96
2, 137400, Note_on_c, 0, 50, 96
2, 137513, Note_on_c, 0, 38, 0
2, 137513, Note_on_c, 0, 50, 0
2, 137640, Note_on_c, 0, 38, 96
2, 137640, Note_on_c, 0, 50, 96
2, 137753, Note_on_c, 0, 38, 0
2, 137753, Note_on_c, 0, 50, 0
2, 137760, Note_on_c, 0, 38, 96
2, 137760, Note_on_c, 0, 50, 96
2, 137873, Note_on_c, 0, 38, 0
2, 137873, Note_on_c, 0, 50, 0
2, 137880, Note_on_c, 0, 38, 96
2, 137880, Note_on_c, 0, 50, 96
2, 137993, Note_on_c, 0, 38, 0
2, 137993, Note_on_c, 0, 50, 0
2, 138000, Note_on_c, 0, 50, 96
2, 138227, Note_on_c, 0, 50, 0
2, 138228, End_track
0, 0, End_of_file
